<svg width="32" height="32" viewBox="0 0 32 32" fill="none" xmlns="http://www.w3.org/2000/svg">
<path d="M16.0001 11.667C14.8508 11.667 13.7486 12.1235 12.936 12.9362C12.1233 13.7489 11.6667 14.8511 11.6667 16.0003C11.6667 17.1496 12.1233 18.2518 12.936 19.0645C13.7486 19.8771 14.8508 20.3337 16.0001 20.3337C17.1494 20.3337 18.2516 19.8771 19.0642 19.0645C19.8769 18.2518 20.3334 17.1496 20.3334 16.0003C20.3334 14.8511 19.8769 13.7489 19.0642 12.9362C18.2516 12.1235 17.1494 11.667 16.0001 11.667Z" fill="#E93323"/>
<path fill-rule="evenodd" clip-rule="evenodd" d="M9.02659 4.10893C13.6613 3.5952 18.3386 3.5952 22.9733 4.10893C25.5053 4.3916 27.5466 6.38493 27.8439 8.92627C28.3935 13.6258 28.3935 18.3734 27.8439 23.0729C27.5466 25.6143 25.5053 27.6076 22.9746 27.8916C18.3395 28.4055 13.6617 28.4055 9.02659 27.8916C6.49459 27.6076 4.45326 25.6143 4.15592 23.0743C3.60623 18.3743 3.60623 13.6262 4.15592 8.92627C4.45326 6.38493 6.49459 4.3916 9.02659 4.10893ZM22.6666 7.9996C22.313 7.9996 21.9738 8.14008 21.7238 8.39012C21.4737 8.64017 21.3333 8.97931 21.3333 9.33293C21.3333 9.68655 21.4737 10.0257 21.7238 10.2757C21.9738 10.5258 22.313 10.6663 22.6666 10.6663C23.0202 10.6663 23.3594 10.5258 23.6094 10.2757C23.8594 10.0257 23.9999 9.68655 23.9999 9.33293C23.9999 8.97931 23.8594 8.64017 23.6094 8.39012C23.3594 8.14008 23.0202 7.9996 22.6666 7.9996ZM9.66659 15.9996C9.66659 14.3199 10.3339 12.709 11.5216 11.5213C12.7093 10.3335 14.3202 9.66627 15.9999 9.66627C17.6796 9.66627 19.2905 10.3335 20.4783 11.5213C21.666 12.709 22.3333 14.3199 22.3333 15.9996C22.3333 17.6793 21.666 19.2902 20.4783 20.4779C19.2905 21.6657 17.6796 22.3329 15.9999 22.3329C14.3202 22.3329 12.7093 21.6657 11.5216 20.4779C10.3339 19.2902 9.66659 17.6793 9.66659 15.9996Z" fill="#E93323"/>
</svg>
