<svg width="32" height="32" viewBox="0 0 32 32" fill="none" xmlns="http://www.w3.org/2000/svg">
<path d="M14.5631 12.2857L19.9464 15.345L14.5631 18.4042V12.2857ZM29.3333 5.38128V25.286C29.3333 26.7846 28.1176 28.0003 26.619 28.0003H6.71429C5.21577 28.0003 4 26.7846 4 25.286V5.38128C4 3.88277 5.21577 2.66699 6.71429 2.66699H26.619C28.1176 2.66699 29.3333 3.88277 29.3333 5.38128ZM26.9583 15.3506C26.9583 15.3506 26.9583 11.9804 26.5286 10.3631C26.2911 9.46967 25.5955 8.76848 24.7077 8.53098C23.1074 8.09556 16.6667 8.09556 16.6667 8.09556C16.6667 8.09556 10.2259 8.09556 8.6256 8.53098C7.7378 8.76848 7.04226 9.46967 6.80476 10.3631C6.375 11.9747 6.375 15.3506 6.375 15.3506C6.375 15.3506 6.375 18.7209 6.80476 20.3381C7.04226 21.2316 7.7378 21.9045 8.6256 22.142C10.2259 22.5718 16.6667 22.5718 16.6667 22.5718C16.6667 22.5718 23.1074 22.5718 24.7077 22.1363C25.5955 21.8988 26.2911 21.2259 26.5286 20.3325C26.9583 18.7209 26.9583 15.3506 26.9583 15.3506Z" fill="#E93323"/>
</svg>
