<svg width="64" height="64" viewBox="0 0 64 64" fill="none" xmlns="http://www.w3.org/2000/svg">
<g clip-path="url(#clip0_161_798)">
<path d="M13.8663 57.5996V60.7996C13.8647 61.3649 13.6394 61.9065 13.2396 62.3062C12.8399 62.706 12.2983 62.9313 11.733 62.9329H7.46634C6.90107 62.9313 6.35942 62.706 5.95971 62.3062C5.56 61.9065 5.3347 61.3649 5.33301 60.7996V57.5996H13.8663Z" fill="#E93323"/>
<path d="M58.6671 57.5996V60.7996C58.6654 61.3649 58.4401 61.9065 58.0404 62.3062C57.6407 62.706 57.0991 62.9313 56.5338 62.9329H52.2671C51.7018 62.9313 51.1602 62.706 50.7605 62.3062C50.3608 61.9065 50.1355 61.3649 50.1338 60.7996V57.5996H58.6671Z" fill="#E93323"/>
<path d="M55.4663 57.5996V60.7996C55.4647 61.3649 55.2393 61.9065 54.8396 62.3062C54.4399 62.706 53.8983 62.9313 53.333 62.9329H56.533C57.0983 62.9313 57.6399 62.706 58.0396 62.3062C58.4393 61.9065 58.6647 61.3649 58.6663 60.7996V57.5996H55.4663Z" fill="#FF9990"/>
<path d="M62.9331 48V55.4667C62.9314 56.0319 62.7061 56.5736 62.3064 56.9733C61.9067 57.373 61.365 57.5983 60.7997 57.6H3.19974C2.63446 57.5983 2.09282 57.373 1.69311 56.9733C1.2934 56.5736 1.06809 56.0319 1.06641 55.4667V48H62.9331Z" fill="#FF9990"/>
<path d="M59.7329 48V55.4667C59.7313 56.0319 59.506 56.5736 59.1062 56.9733C58.7065 57.373 58.1649 57.5983 57.5996 57.6H60.7996C61.3649 57.5983 61.9065 57.373 62.3062 56.9733C62.706 56.5736 62.9313 56.0319 62.9329 55.4667V48H59.7329Z" fill="#E93323"/>
<path d="M54.5489 26.6661H9.4502L12.7995 18.1328H17.0662V20.2661C17.0679 20.8314 17.2932 21.3731 17.6929 21.7728C18.0926 22.1725 18.6343 22.3978 19.1995 22.3995H27.7329C28.2981 22.3978 28.8398 22.1725 29.2395 21.7728C29.6392 21.3731 29.8645 20.8314 29.8662 20.2661V18.1328H34.1329V20.2661C34.1346 20.8314 34.3599 21.3731 34.7596 21.7728C35.1593 22.1725 35.7009 22.3978 36.2662 22.3995H44.7995C45.3648 22.3978 45.9064 22.1725 46.3062 21.7728C46.7059 21.3731 46.9312 20.8314 46.9329 20.2661V18.1328H51.1995L54.5489 26.6661Z" fill="#FF9990"/>
<path d="M51.2 18.1338H48L51.3493 26.6671H54.5493L51.2 18.1338Z" fill="#E93323"/>
<path d="M56.6509 32.0003H7.34961L9.45094 26.667H54.5496L56.6509 32.0003Z" fill="#FF9990"/>
<path d="M54.5496 26.667H51.3496L53.4509 32.0003H56.6509L54.5496 26.667Z" fill="#E93323"/>
<path d="M62.9331 48H1.06641L7.34907 32H56.6504L62.9331 48Z" fill="#FF9990"/>
<path d="M56.6502 32H53.4502L59.7329 48H62.9329L56.6502 32Z" fill="#E93323"/>
<path d="M51.2001 5.33307V18.1331H46.9334V15.9997C46.9317 15.4345 46.7064 14.8928 46.3067 14.4931C45.907 14.0934 45.3653 13.8681 44.8 13.8664H36.2667C35.7014 13.8681 35.1598 14.0934 34.7601 14.4931C34.3604 14.8928 34.1351 15.4345 34.1334 15.9997V18.1331H29.8667V15.9997C29.865 15.4345 29.6397 14.8928 29.24 14.4931C28.8403 14.0934 28.2987 13.8681 27.7334 13.8664H19.2C18.6348 13.8681 18.0931 14.0934 17.6934 14.4931C17.2937 14.8928 17.0684 15.4345 17.0667 15.9997V18.1331H12.8V5.33307C12.8 4.20148 13.2496 3.11624 14.0497 2.31608C14.8499 1.51593 15.9351 1.06641 17.0667 1.06641H46.9334C48.065 1.06641 49.1502 1.51593 49.9504 2.31608C50.7505 3.11624 51.2001 4.20148 51.2001 5.33307Z" fill="#FF9990"/>
<path d="M46.9334 1.06641H43.7334C44.865 1.06641 45.9502 1.51593 46.7504 2.31608C47.5505 3.11624 48.0001 4.20148 48.0001 5.33307V18.1331H51.2001V5.33307C51.2001 4.20148 50.7505 3.11624 49.9504 2.31608C49.1502 1.51593 48.065 1.06641 46.9334 1.06641Z" fill="#E93323"/>
<path d="M27.7331 13.8672H19.1997C18.0215 13.8672 17.0664 14.8223 17.0664 16.0005V20.2672C17.0664 21.4454 18.0215 22.4005 19.1997 22.4005H27.7331C28.9113 22.4005 29.8664 21.4454 29.8664 20.2672V16.0005C29.8664 14.8223 28.9113 13.8672 27.7331 13.8672Z" fill="#FF9990"/>
<path d="M44.8005 13.8672H36.2671C35.0889 13.8672 34.1338 14.8223 34.1338 16.0005V20.2672C34.1338 21.4454 35.0889 22.4005 36.2671 22.4005H44.8005C45.9787 22.4005 46.9338 21.4454 46.9338 20.2672V16.0005C46.9338 14.8223 45.9787 13.8672 44.8005 13.8672Z" fill="#FF9990"/>
<path d="M3.19974 57.5997H5.33307V60.7997C5.33476 61.365 5.56006 61.9067 5.95978 62.3064C6.35949 62.7061 6.90113 62.9314 7.46641 62.9331H10.6664C10.1011 62.9314 9.55949 62.7061 9.15978 62.3064C8.76007 61.9067 8.53476 61.365 8.53307 60.7997V57.5997H6.39974C5.83446 57.5981 5.29282 57.3727 4.89311 56.973C4.4934 56.5733 4.26809 56.0317 4.26641 55.4664V47.9997L10.5491 31.9997L12.6504 26.6664L15.9997 18.1331V5.33307C15.9997 4.20148 16.4493 3.11624 17.2494 2.31608C18.0496 1.51593 19.1348 1.06641 20.2664 1.06641H17.0664C15.9348 1.06641 14.8496 1.51593 14.0494 2.31608C13.2493 3.11624 12.7997 4.20148 12.7997 5.33307V18.1331L9.45041 26.6664L7.34907 31.9997L1.06641 47.9997V55.4664C1.06809 56.0317 1.2934 56.5733 1.69311 56.973C2.09282 57.3727 2.63446 57.5981 3.19974 57.5997Z" fill="#FCFCFD"/>
<path d="M11.7334 5.33301H13.8667V13.8663H11.7334V5.33301Z" fill="#FCFCFD"/>
<path d="M63.9168 47.5851L52.2667 17.9317V5.33333C52.265 3.91937 51.7025 2.5638 50.7027 1.56397C49.7029 0.564141 48.3473 0.00169371 46.9333 0L17.0667 0C15.6527 0.00169371 14.2971 0.564141 13.2973 1.56397C12.2975 2.5638 11.735 3.91937 11.7333 5.33333C11.7333 5.61623 11.8457 5.88754 12.0458 6.08758C12.2458 6.28762 12.5171 6.4 12.8 6.4C13.0829 6.4 13.3542 6.28762 13.5542 6.08758C13.7543 5.88754 13.8667 5.61623 13.8667 5.33333C13.8667 4.48464 14.2038 3.67071 14.8039 3.07059C15.404 2.47048 16.218 2.13333 17.0667 2.13333H46.9333C47.782 2.13333 48.596 2.47048 49.1961 3.07059C49.7962 3.67071 50.1333 4.48464 50.1333 5.33333V17.0667H48V16C48 15.1513 47.6629 14.3374 47.0627 13.7373C46.4626 13.1371 45.6487 12.8 44.8 12.8H36.2667C35.418 12.8 34.604 13.1371 34.0039 13.7373C33.4038 14.3374 33.0667 15.1513 33.0667 16V17.0667H30.9333V16C30.9333 15.1513 30.5962 14.3374 29.9961 13.7373C29.396 13.1371 28.582 12.8 27.7333 12.8H19.2C18.3513 12.8 17.5374 13.1371 16.9373 13.7373C16.3371 14.3374 16 15.1513 16 16V17.0667H13.8667V13.8667C13.8667 13.5838 13.7543 13.3125 13.5542 13.1124C13.3542 12.9124 13.0829 12.8 12.8 12.8C12.5171 12.8 12.2458 12.9124 12.0458 13.1124C11.8457 13.3125 11.7333 13.5838 11.7333 13.8667V17.9317L0.0842672 47.5851L0.0736005 47.6096C0.0248359 47.734 -0.000130357 47.8664 5.11833e-07 48V55.4667C5.11833e-07 56.3154 0.337142 57.1293 0.937259 57.7294C1.53738 58.3295 2.35131 58.6667 3.2 58.6667H4.26667V60.8C4.26667 61.6487 4.60381 62.4626 5.20393 63.0627C5.80404 63.6629 6.61797 64 7.46667 64H11.7333C12.582 64 13.396 63.6629 13.9961 63.0627C14.5962 62.4626 14.9333 61.6487 14.9333 60.8V58.6667H49.0667V60.8C49.0667 61.6487 49.4038 62.4626 50.0039 63.0627C50.604 63.6629 51.418 64 52.2667 64H56.5333C57.382 64 58.196 63.6629 58.7961 63.0627C59.3962 62.4626 59.7333 61.6487 59.7333 60.8V58.6667H60.8C61.6487 58.6667 62.4626 58.3295 63.0627 57.7294C63.6629 57.1293 64 56.3154 64 55.4667V48C64.0001 47.8664 63.9752 47.734 63.9264 47.6096L63.9168 47.5851ZM35.2 16C35.2 15.7171 35.3124 15.4458 35.5124 15.2458C35.7125 15.0457 35.9838 14.9333 36.2667 14.9333H44.8C45.0829 14.9333 45.3542 15.0457 45.5542 15.2458C45.7543 15.4458 45.8667 15.7171 45.8667 16V20.2667C45.8667 20.5496 45.7543 20.8209 45.5542 21.0209C45.3542 21.221 45.0829 21.3333 44.8 21.3333H36.2667C35.9838 21.3333 35.7125 21.221 35.5124 21.0209C35.3124 20.8209 35.2 20.5496 35.2 20.2667V16ZM18.1333 16C18.1333 15.7171 18.2457 15.4458 18.4458 15.2458C18.6458 15.0457 18.9171 14.9333 19.2 14.9333H27.7333C28.0162 14.9333 28.2875 15.0457 28.4876 15.2458C28.6876 15.4458 28.8 15.7171 28.8 16V20.2667C28.8 20.5496 28.6876 20.8209 28.4876 21.0209C28.2875 21.221 28.0162 21.3333 27.7333 21.3333H19.2C18.9171 21.3333 18.6458 21.221 18.4458 21.0209C18.2457 20.8209 18.1333 20.5496 18.1333 20.2667V16ZM13.5275 19.2H16V20.2667C16 21.1154 16.3371 21.9293 16.9373 22.5294C17.5374 23.1295 18.3513 23.4667 19.2 23.4667H27.7333C28.582 23.4667 29.396 23.1295 29.9961 22.5294C30.5962 21.9293 30.9333 21.1154 30.9333 20.2667V19.2H33.0667V20.2667C33.0667 21.1154 33.4038 21.9293 34.0039 22.5294C34.604 23.1295 35.418 23.4667 36.2667 23.4667H44.8C45.6487 23.4667 46.4626 23.1295 47.0627 22.5294C47.6629 21.9293 48 21.1154 48 20.2667V19.2H50.4725L52.9877 25.6H11.0123L13.5275 19.2ZM10.1749 27.7333H53.8251L55.0827 30.9333H8.91733L10.1749 27.7333ZM8.07893 33.0667H55.9211L61.3685 46.9333H2.63147L8.07893 33.0667ZM12.8 60.8C12.8 61.0829 12.6876 61.3542 12.4876 61.5543C12.2875 61.7543 12.0162 61.8667 11.7333 61.8667H7.46667C7.18377 61.8667 6.91246 61.7543 6.71242 61.5543C6.51238 61.3542 6.4 61.0829 6.4 60.8V58.6667H12.8V60.8ZM57.6 60.8C57.6 61.0829 57.4876 61.3542 57.2876 61.5543C57.0875 61.7543 56.8162 61.8667 56.5333 61.8667H52.2667C51.9838 61.8667 51.7125 61.7543 51.5124 61.5543C51.3124 61.3542 51.2 61.0829 51.2 60.8V58.6667H57.6V60.8ZM61.8667 55.4667C61.8667 55.7496 61.7543 56.0209 61.5543 56.2209C61.3542 56.421 61.0829 56.5333 60.8 56.5333H3.2C2.9171 56.5333 2.64579 56.421 2.44575 56.2209C2.24571 56.0209 2.13333 55.7496 2.13333 55.4667V49.0667H61.8667V55.4667Z" fill="#E93323"/>
<path d="M12.8001 10.6665C13.3892 10.6665 13.8667 10.189 13.8667 9.59987C13.8667 9.01077 13.3892 8.5332 12.8001 8.5332C12.211 8.5332 11.7334 9.01077 11.7334 9.59987C11.7334 10.189 12.211 10.6665 12.8001 10.6665Z" fill="#E93323"/>
</g>
<defs>
<clipPath id="clip0_161_798">
<rect width="64" height="64" fill="white"/>
</clipPath>
</defs>
</svg>
