<svg width="65" height="64" viewBox="0 0 65 64" fill="none" xmlns="http://www.w3.org/2000/svg">
<g clip-path="url(#clip0_161_820)">
<path d="M63.4126 49.6635C63.5431 51.0115 63.0987 52.352 62.1889 53.3552C61.2791 54.3585 59.9883 54.9313 58.6339 54.9328H16.3833C8.60618 55.0179 2.11472 49.0179 1.58861 41.2581C1.38993 37.3187 2.81594 33.4702 5.53365 30.6113C8.25136 27.7525 12.0228 26.1336 15.9673 26.1328H53.8339C58.3502 26.1376 62.2551 29.2836 63.2206 33.6955L63.2526 33.8661C63.3726 34.4811 63.4333 35.1062 63.4339 35.7328C63.4257 41.0313 59.1325 45.3246 53.8339 45.3328H58.4313C60.9546 45.2909 63.1032 47.1589 63.4126 49.6635Z" fill="#FC7C7C"/>
<path d="M58.4305 45.3337H55.2305C57.7538 45.2918 59.9024 47.1597 60.2118 49.6644C60.3422 51.0124 59.8979 52.3529 58.9881 53.3561C58.0783 54.3594 56.7875 54.9322 55.4331 54.9337H58.6331C59.9875 54.9322 61.2783 54.3594 62.1881 53.3561C63.0979 52.3529 63.5422 51.0124 63.4118 49.6644C63.1024 47.1597 60.9538 45.2918 58.4305 45.3337Z" fill="#FBD7D7"/>
<path d="M60.0202 33.6965L60.0522 33.8671C60.1722 34.4821 60.2329 35.1072 60.2335 35.7338C60.2253 41.0323 55.9321 45.3256 50.6335 45.3338H53.8335C59.1321 45.3256 63.4253 41.0323 63.4335 35.7338C63.4329 35.1072 63.3722 34.4821 63.2522 33.8671L63.2202 33.6965C62.2547 29.2846 58.3498 26.1385 53.8335 26.1338H50.6335C55.1498 26.1385 59.0547 29.2846 60.0202 33.6965Z" fill="#FBD7D7"/>
<path d="M63.2202 33.6957C62.2546 29.2839 58.3498 26.1378 53.8335 26.1331H15.9669C9.26616 26.1394 3.45369 30.7629 1.94019 37.2904L5.98285 18.3464C7.13585 12.9345 11.9161 9.06579 17.4495 9.06641H48.6175C54.1509 9.06579 58.9312 12.9345 60.0842 18.3464L63.2202 33.6957Z" fill="#FBD7D7"/>
<path d="M60.0846 18.3464C58.9316 12.9345 54.1513 9.06579 48.618 9.06641H45.418C50.9513 9.06579 55.7316 12.9345 56.8846 18.3464L58.7545 27.4984C61.034 28.86 62.6501 31.1025 63.2206 33.6957L60.0846 18.3464Z" fill="#FC7C7C"/>
<path d="M1.9399 37.291L1.86523 37.6217L1.9399 37.291Z" fill="#FBD7D7"/>
<path d="M16.3829 54.9331H19.5829C10.2816 54.9331 2.97277 46.5064 5.14024 37.2904L9.18291 18.3464C10.3359 12.9345 15.1162 9.06579 20.6496 9.06641H17.4496C11.9162 9.06579 7.1359 12.9345 5.98291 18.3464L1.94024 37.2904C-0.227225 46.5064 7.08158 54.9331 16.3829 54.9331Z" fill="white"/>
<path d="M7.72754 53.4784L8.87101 51.6768C9.99608 52.3728 11.206 52.9213 12.471 53.3088C13.7472 53.6573 15.0619 53.8447 16.3846 53.8666V56C14.8603 55.9785 13.3449 55.7634 11.8747 55.36C10.4167 54.915 9.02262 54.2825 7.72754 53.4784Z" fill="white"/>
<path d="M12.1863 55.3931C11.5972 55.396 11.1172 54.9209 11.1143 54.3318C11.1113 53.7427 11.5865 53.2627 12.1756 53.2598H12.1863C12.7754 53.2598 13.2529 53.7373 13.2529 54.3264C13.2529 54.9155 12.7754 55.3931 12.1863 55.3931Z" fill="#E93323"/>
<path d="M64.3008 33.6683L61.1285 18.1248C59.8495 12.233 54.6466 8.0224 48.6176 8H17.4496C11.421 8.02199 6.21836 12.2323 4.93971 18.1237L0.820247 37.3984C0.818654 37.424 0.818654 37.4496 0.820247 37.4752C0.561659 38.7378 0.460977 40.0277 0.520514 41.3152C0.662255 43.7742 1.39045 46.1636 2.64425 48.2837C3.92089 50.38 5.65974 52.1568 7.72798 53.4784C7.97244 53.6371 8.2717 53.6875 8.55464 53.6175C8.83757 53.5476 9.07892 53.3636 9.22131 53.1093C9.49721 52.6133 9.34367 51.9885 8.86931 51.6768C7.08159 50.5338 5.57791 48.9984 4.47251 47.1872C3.39727 45.3671 2.77195 43.3167 2.64851 41.2064C2.46814 37.5587 3.79034 33.9965 6.30696 31.3498C8.82359 28.7032 12.3148 27.2034 15.9669 27.2H53.8336C58.5464 27.2 62.3669 31.0205 62.3669 35.7333C62.3669 40.4462 58.5464 44.2667 53.8336 44.2667H15.9669C14.9118 44.2652 13.9065 43.8181 13.1989 43.0355C12.4913 42.2529 12.1473 41.2078 12.2517 40.1579C12.5184 38.2033 14.208 36.7591 16.1802 36.8H53.8336C54.4227 36.8 54.9002 36.3224 54.9002 35.7333C54.9002 35.1442 54.4227 34.6667 53.8336 34.6667H16.1802C13.1131 34.6342 10.5095 36.9075 10.128 39.9509C9.96549 41.5998 10.507 43.2406 11.619 44.4688C12.731 45.697 14.3101 46.3984 15.9669 46.4H58.4277C60.4003 46.3594 62.0885 47.8074 62.3488 49.7632C62.4567 50.8151 62.1101 51.8631 61.3963 52.6432C60.6881 53.421 59.6855 53.865 58.6336 53.8667H16.385C15.7959 53.8667 15.3184 54.3442 15.3184 54.9333C15.3184 55.5224 15.7959 56 16.385 56H58.6336C60.2892 56.0001 61.8678 55.3006 62.9799 54.0741C64.0921 52.8476 64.6342 51.2083 64.4725 49.5605C64.1789 47.078 62.3624 45.045 59.9285 44.4747C63.3989 42.0727 65.1161 37.8426 64.3018 33.7013C64.2986 33.6864 64.3018 33.6779 64.3008 33.6683ZM53.8336 25.0667H15.9669C11.7292 25.0534 7.67493 26.7948 4.76691 29.8773C4.69225 29.9552 4.63038 30.0405 4.55358 30.1195L7.02611 18.5685C8.09156 13.6597 12.4265 10.1517 17.4496 10.1333H48.6176C53.6378 10.1509 57.9715 13.6547 59.04 18.56L60.9248 27.7877C58.9779 26.0367 56.4521 25.0675 53.8336 25.0667Z" fill="#E93323"/>
<path d="M26.1 12.2666H17.4493C13.4318 12.2811 9.96428 15.0863 9.11116 19.0122C9.05238 19.289 9.10601 19.5779 9.26026 19.8151C9.4145 20.0524 9.6567 20.2186 9.93356 20.2773C10.0068 20.293 10.0816 20.3008 10.1565 20.3007C10.6596 20.3002 11.094 19.9481 11.1986 19.4559C11.8382 16.513 14.4377 14.4103 17.4493 14.3999H26.1C26.6891 14.3999 27.1666 13.9224 27.1666 13.3333C27.1666 12.7442 26.6891 12.2666 26.1 12.2666Z" fill="#E93323"/>
<path d="M30.3665 14.3999C30.9556 14.3999 31.4331 13.9224 31.4331 13.3333C31.4331 12.7442 30.9556 12.2666 30.3665 12.2666C29.7774 12.2666 29.2998 12.7442 29.2998 13.3333C29.2998 13.9224 29.7774 14.3999 30.3665 14.3999Z" fill="#E93323"/>
</g>
<defs>
<clipPath id="clip0_161_820">
<rect width="64" height="64" fill="white" transform="translate(0.5)"/>
</clipPath>
</defs>
</svg>
