<svg width="65" height="64" viewBox="0 0 65 64" fill="none" xmlns="http://www.w3.org/2000/svg">
<g clip-path="url(#clip0_161_772)">
<path d="M63.4331 25.5997C63.4331 38.3997 62.3664 50.1331 59.1664 50.1331C59.0491 50.1331 58.9317 50.1224 58.8144 50.1117H58.8037C55.3904 45.5464 49.4917 41.2157 39.2517 39.8824C34.7678 39.3224 30.2317 39.3224 25.7477 39.8824C15.5077 41.2157 9.60907 45.5464 6.19574 50.1117H6.18507C6.06774 50.1224 5.95041 50.1331 5.83307 50.1331C2.63307 50.1331 1.56641 38.3997 1.56641 25.5997C1.56641 12.7997 2.63307 1.06641 5.83307 1.06641C8.88374 1.06641 10.8357 4.87441 11.6997 7.05041H11.7104C13.9504 6.62374 16.8411 6.18641 20.4144 5.85574C17.2704 8.28133 15.4301 12.0288 15.4331 15.9997V23.5624C16.0273 23.6662 16.5981 23.8758 17.1184 24.1811C18.0997 21.0771 20.6277 17.0664 27.1664 17.0664H32.4997L35.6997 12.7997L36.7664 17.0664H37.8331C44.3717 17.0664 46.8997 21.0771 47.8811 24.1811C48.4013 23.8758 48.9722 23.6662 49.5664 23.5624V15.9997C49.5698 12.3495 48.0134 8.87181 45.2891 6.44241C45.403 6.29006 45.4996 6.12549 45.5771 5.95174C48.6917 6.27174 51.2624 6.66641 53.2891 7.05041C54.1637 4.87441 56.1157 1.06641 59.1664 1.06641C62.3664 1.06641 63.4331 12.7997 63.4331 25.5997Z" fill="#FC7C7C"/>
<path d="M59.1661 1.06641C58.4448 1.07403 57.74 1.28274 57.1309 1.66907C59.4295 4.21201 60.2327 14.5064 60.2327 25.5997C60.2327 35.7693 59.5586 45.2584 57.6727 48.7315C58.0727 49.188 58.4525 49.6477 58.7991 50.1117H58.8098C58.9271 50.1224 59.0445 50.1331 59.1618 50.1331C62.3618 50.1331 63.4285 38.3997 63.4285 25.5997C63.4285 12.7997 62.3661 1.06641 59.1661 1.06641Z" fill="#FBD7D7"/>
<path d="M17.7154 31.9355C14.9954 32.3622 13.9181 30.4955 12.8834 28.6288C11.7528 26.5595 12.0301 23.4662 14.3021 23.4662C14.6812 23.4621 15.0598 23.4943 15.4328 23.5622C16.027 23.666 16.5978 23.8755 17.1181 24.1808C16.7484 25.3305 16.5402 26.5259 16.4994 27.7328C16.5463 29.2135 16.9645 30.6586 17.7154 31.9355Z" fill="#FC7C7C"/>
<path d="M52.1162 28.6288C51.0815 30.4955 50.0042 32.3622 47.2842 31.9355C48.0351 30.6586 48.4533 29.2135 48.5002 27.7328C48.4594 26.5259 48.2512 25.3305 47.8815 24.1808C48.4018 23.8755 48.9726 23.666 49.5668 23.5622C49.9398 23.4943 50.3184 23.4621 50.6975 23.4662C52.9695 23.4662 53.2468 26.5595 52.1162 28.6288Z" fill="#FC7C7C"/>
<path d="M49.566 15.9997V23.5624C48.9717 23.6662 48.4009 23.8758 47.8806 24.1811C46.8993 21.0771 44.3713 17.0664 37.8326 17.0664H36.766L35.6993 12.7997L32.4993 17.0664H27.166C20.6273 17.0664 18.0993 21.0771 17.118 24.1811C16.5977 23.8758 16.0269 23.6662 15.4326 23.5624V15.9997C15.4304 12.6043 16.7782 9.34723 19.1792 6.94627C21.5801 4.54531 24.8372 3.19747 28.2326 3.19974H34.6326C35.6993 3.19974 43.166 3.19974 45.2993 1.06641C46.0588 2.58427 46.366 4.97041 45.2886 6.44241C48.0129 8.87181 49.5694 12.3495 49.566 15.9997Z" fill="#FBD7D7"/>
<path d="M45.2891 6.44241C46.3664 4.97041 46.0592 2.58427 45.2998 1.06641C44.5145 1.72109 43.5799 2.17208 42.5787 2.37947C43.0056 3.74134 42.8273 5.22093 42.0891 6.44241C44.8134 8.87181 46.3699 12.3495 46.3664 15.9997V21.0664C47.0271 22.0214 47.5379 23.0717 47.8811 24.1811C48.4014 23.8758 48.9722 23.6662 49.5664 23.5624V15.9997C49.5699 12.3495 48.0134 8.87181 45.2891 6.44241Z" fill="#FC7C7C"/>
<path d="M48.5 27.7331C48.5 32.2131 43.5208 37.6691 39.252 39.8825C34.7678 39.3267 30.2322 39.3267 25.748 39.8825C21.4952 37.6766 16.5 32.2067 16.5 27.7331C16.5408 26.5262 16.749 25.3308 17.1187 24.1811C18.1 21.0771 20.628 17.0665 27.1667 17.0665H32.5L35.7 12.7998L36.7667 17.0665H37.8333C44.372 17.0665 46.9 21.0771 47.8813 24.1811C48.251 25.3308 48.4592 26.5262 48.5 27.7331Z" fill="#FBD7D7"/>
<path d="M47.8811 24.1811C46.8998 21.0771 44.3718 17.0665 37.8331 17.0665H36.7665L35.6998 12.7998L33.2998 15.9998L33.5665 17.0665H34.6331C41.1718 17.0665 43.6998 21.0771 44.6811 24.1811C45.0508 25.3308 45.259 26.5262 45.2998 27.7331C45.2998 32.1662 40.4721 37.4035 36.519 39.6147C37.4598 39.683 38.375 39.7694 39.2518 39.8825C42.6417 38.0666 45.4318 35.3061 47.2838 31.9358C48.6732 29.5829 48.8938 26.719 47.8811 24.1811Z" fill="#FC7C7C"/>
<path d="M63.4331 62.9326H1.56641C1.81321 58.2962 3.42366 53.8359 6.19574 50.1113C9.60907 45.5459 15.5077 41.2153 25.7477 39.8819C30.2317 39.3219 34.7678 39.3219 39.2517 39.8819C49.4917 41.2153 55.3904 45.5459 58.8037 50.1113C61.5758 53.8359 63.1863 58.2962 63.4331 62.9326Z" fill="#FBD7D7"/>
<path d="M58.8039 50.1118C55.3905 45.5465 49.4919 41.2158 39.2519 39.8825C36.4799 39.5425 33.6857 39.4184 30.8945 39.5113C32.6471 39.5614 34.3911 39.667 36.0519 39.8825C46.2919 41.2158 52.1905 45.5465 55.6039 50.1118C58.3759 53.8365 59.9864 58.2968 60.2332 62.9332H63.4332C63.1864 58.2968 61.5759 53.8365 58.8039 50.1118Z" fill="#FC7C7C"/>
<path d="M4.76641 62.9331C5.01321 58.2967 6.62366 53.8364 9.39574 50.1117C9.39574 50.1117 9.16747 50.1331 9.03307 50.1331C5.83307 50.1331 4.76641 38.3997 4.76641 25.5997C4.76641 14.5064 5.56961 4.21201 7.86827 1.67014C7.25951 1.28291 6.55452 1.07378 5.83307 1.06641C2.63307 1.06641 1.56641 12.7997 1.56641 25.5997C1.56641 38.3997 2.63307 50.1331 5.83307 50.1331C5.96747 50.1331 6.19254 50.1117 6.19574 50.1117C3.42366 53.8364 1.81321 58.2967 1.56641 62.9331H4.76641Z" fill="white"/>
<path d="M2.81573 34.0807L0.6824 34.1799C0.552267 31.3169 0.5 28.4572 0.5 25.5996H2.63333C2.63333 28.4305 2.68453 31.2604 2.81573 34.0807Z" fill="white"/>
<path d="M28.233 25.5999C28.233 25.0108 27.7554 24.5332 27.1663 24.5332C26.5772 24.5332 26.0997 25.0108 26.0997 25.5999C26.0997 26.189 25.6221 26.6665 25.033 26.6665C24.4439 26.6665 23.9663 26.189 23.9663 25.5999C23.9663 25.0108 23.4888 24.5332 22.8997 24.5332C22.3106 24.5332 21.833 25.0108 21.833 25.5999C21.833 27.3672 23.2657 28.7999 25.033 28.7999C26.8003 28.7999 28.233 27.3672 28.233 25.5999Z" fill="#E93323"/>
<path d="M39.9666 28.7999C41.7339 28.7999 43.1666 27.3672 43.1666 25.5999C43.1666 25.0108 42.689 24.5332 42.0999 24.5332C41.5108 24.5332 41.0333 25.0108 41.0333 25.5999C41.0333 26.189 40.5557 26.6665 39.9666 26.6665C39.3775 26.6665 38.8999 26.189 38.8999 25.5999C38.8999 25.0108 38.4224 24.5332 37.8333 24.5332C37.2442 24.5332 36.7666 25.0108 36.7666 25.5999C36.7666 27.3672 38.1993 28.7999 39.9666 28.7999Z" fill="#E93323"/>
<path d="M32.5 32.0002C33.0974 32.0002 33.5816 31.5159 33.5816 30.9186C33.5816 30.3212 33.0974 29.837 32.5 29.837C32.4918 29.2479 32.0075 28.777 31.4184 28.7853C30.8293 28.7935 30.3584 29.2778 30.3667 29.8669C30.3546 30.4363 30.5755 30.9859 30.9782 31.3886C31.381 31.7914 31.9306 32.0122 32.5 32.0002Z" fill="#E93323"/>
<path d="M37.7262 34.6106C37.985 34.0904 37.7766 33.459 37.259 33.1951C36.7388 32.9306 36.1025 33.1294 35.8254 33.6431C35.081 34.7266 33.8085 35.3225 32.4996 35.2004C31.1936 35.3201 29.9248 34.7255 29.1812 33.6452C28.9074 33.1338 28.2752 32.9348 27.7579 33.1974C27.2407 33.4599 27.028 34.0877 27.2793 34.6106C28.3747 36.4215 30.3876 37.4716 32.4996 37.3338C34.6137 37.4738 36.6296 36.4235 37.7262 34.6106Z" fill="#E93323"/>
<path d="M1.63061 30.9331C1.0415 30.9361 0.561553 30.4609 0.558607 29.8718C0.555662 29.2827 1.03084 28.8028 1.61994 28.7998H1.63061C2.21971 28.7998 2.69727 29.2774 2.69727 29.8665C2.69727 30.4556 2.21971 30.9331 1.63061 30.9331Z" fill="#E93323"/>
<path d="M64.5 25.6C64.5 0 60.6259 0 59.1667 0C56.6397 0 54.3528 2.08533 52.66 5.856C50.8787 5.536 48.9779 5.264 46.98 5.03467C47.1879 3.51443 46.9372 1.96674 46.26 0.589867C46.1068 0.283207 45.8154 0.0688955 45.4771 0.0138667C45.1385 -0.0393484 44.7948 0.0715181 44.5512 0.312533C43.4429 1.41867 39.5528 2.13333 34.6333 2.13333H28.2333C25.2935 2.13431 22.4311 3.07585 20.0648 4.82027C17.3096 5.08053 14.7229 5.4304 12.34 5.856C10.6472 2.08533 8.36027 0 5.83333 0C4.37413 0 0.5 0 0.5 25.6C0.5 26.1891 0.977563 26.6667 1.56667 26.6667C2.15577 26.6667 2.63333 26.1891 2.63333 25.6C2.63333 6.3488 4.94373 2.13333 5.83333 2.13333C7.81627 2.13333 9.33627 4.50027 10.1971 6.2688C8.58988 6.58345 7.00582 7.00646 5.45573 7.53493C4.97284 7.71653 4.68913 8.2177 4.78192 8.7252C4.87472 9.23269 5.31742 9.60104 5.83333 9.6C5.96155 9.59972 6.08869 9.57661 6.2088 9.53173C8.07172 8.91167 9.9786 8.43245 11.9133 8.09813C13.652 7.76747 15.5283 7.4848 17.4984 7.2448C15.4728 9.71289 14.366 12.8071 14.3667 16V22.4H14.3027C13.243 22.3725 12.2539 22.9293 11.7277 23.8496C10.9185 25.543 11.0024 27.5276 11.9517 29.1467C12.8851 30.8267 14.1267 33.0667 16.9512 33.0667C17.0109 33.0667 17.0803 33.0528 17.1411 33.0507C18.5948 35.4904 20.5207 37.6154 22.8061 39.3013C14.2728 40.9984 9.0024 44.8907 5.75227 49.0464C5.48051 48.8787 5.26335 48.6356 5.1272 48.3467C4.82542 47.788 4.58509 47.1982 4.4104 46.5877C4.0305 45.2603 3.74534 43.9076 3.55707 42.5397C3.15493 39.76 2.948 36.9216 2.8104 34.0821C2.78301 33.493 2.28324 33.0377 1.69413 33.0651C1.10503 33.0925 0.649673 33.5922 0.677067 34.1813C0.82 37.0656 1.03333 39.9541 1.44933 42.8501C1.65189 44.3234 1.95952 45.7802 2.36987 47.2096C2.5916 47.978 2.8982 48.7192 3.284 49.4197C3.51403 49.835 3.8114 50.2091 4.164 50.5269C4.27026 50.6227 4.38405 50.7097 4.50427 50.7872C2.14175 54.4216 0.762091 58.6065 0.5 62.9333C0.5 63.5224 0.977563 64 1.56667 64H63.4333C64.0224 64 64.5 63.5224 64.5 62.9333C64.2386 58.6318 62.8731 54.4703 60.5352 50.8501C62.2515 49.7451 64.5 45.1061 64.5 25.6ZM28.2333 4.26667H34.6333C37.4461 4.26667 42.0797 4.04267 44.7571 2.71467C45.2728 4.10792 44.8209 5.67461 43.6424 6.5792C43.3179 6.78737 43.131 7.15444 43.1535 7.53931C43.176 7.92418 43.4045 8.26695 43.751 8.43586C44.0976 8.60476 44.5083 8.57352 44.8253 8.35413C44.9978 8.23828 45.1634 8.11256 45.3213 7.9776C47.3593 10.1522 48.4955 13.0197 48.5 16V22.7392L48.4691 22.7499C47.1549 19.5541 44.2515 16 37.8333 16H37.5997L36.7357 12.5408C36.6361 12.1412 36.3153 11.8347 35.9116 11.7533C35.5079 11.6719 35.0934 11.8302 34.8467 12.16L31.9667 16H27.1667C20.7507 16 17.8451 19.5509 16.5267 22.7467L16.5 22.7381V16C16.5076 9.52303 21.7564 4.27431 28.2333 4.26667ZM49.14 24.7765C49.3476 24.7009 49.5619 24.6452 49.78 24.6101C50.0862 24.5553 50.3969 24.5295 50.708 24.5333C51.0155 24.5057 51.3097 24.665 51.4547 24.9376C51.8648 25.9783 51.7707 27.1501 51.1997 28.112C50.7666 29.1974 49.9953 30.1145 49.0003 30.7275C49.3612 29.7698 49.5529 28.7567 49.5667 27.7333C49.5296 26.7354 49.3865 25.7442 49.14 24.7765ZM13.8333 28.1173C13.2596 27.1546 13.1643 25.9803 13.5752 24.9376C13.7176 24.6704 14.0039 24.5121 14.3059 24.5333C14.6278 24.5298 14.9492 24.5573 15.2659 24.6155C15.4707 24.6486 15.6718 24.7014 15.8664 24.7733C15.6174 25.7418 15.4723 26.7341 15.4333 27.7333C15.4512 28.7571 15.6472 29.7699 16.0125 30.7264C15.0225 30.1134 14.2553 29.1989 13.8237 28.1173H13.8333ZM18.6611 31.424C17.9916 30.3054 17.6151 29.036 17.5667 27.7333C17.5667 27.3408 17.6733 18.1333 27.1667 18.1333H32.5C32.8357 18.1333 33.1519 17.9753 33.3533 17.7067L35.2093 15.2331L35.732 17.3259C35.8509 17.8005 36.2774 18.1333 36.7667 18.1333H37.8333C47.2797 18.1333 47.4333 27.344 47.4333 27.7333C47.3873 29.0348 47.0142 30.3037 46.3485 31.4229C44.6411 34.5202 42.0969 37.0747 39.0067 38.7947C34.6848 38.2688 30.3152 38.2688 25.9933 38.7947C22.9028 37.0746 20.3585 34.5196 18.6515 31.4219L18.6611 31.424ZM2.69093 61.8667C3.09733 57.3643 6.36667 40.5333 32.5 40.5333C58.564 40.5333 61.8845 57.3611 62.3059 61.8667H2.69093ZM42.1939 39.3003C44.4791 37.6138 46.4053 35.4889 47.86 33.0496C47.9229 33.0496 47.9944 33.0656 48.0563 33.0656C50.8797 33.0656 52.1224 30.8256 53.0557 29.1403C54.0022 27.5221 54.0849 25.54 53.2765 23.8485C52.7489 22.9294 51.76 22.3733 50.7005 22.4H50.6333V16C50.6266 12.8061 49.5191 9.71208 47.4973 7.23947C49.4739 7.4816 51.348 7.7728 53.0888 8.0928C55.0225 8.42726 56.9283 8.90648 58.7901 9.5264C58.9102 9.57322 59.0378 9.59815 59.1667 9.6C59.6828 9.60155 60.126 9.23337 60.2191 8.72572C60.3121 8.21807 60.0284 7.7166 59.5453 7.53493C57.9953 7.00646 56.4112 6.58345 54.804 6.2688C55.6637 4.50027 57.1837 2.13333 59.1667 2.13333C60.0563 2.13333 62.3667 6.3488 62.3667 25.6C62.3667 44.2464 60.2003 48.7872 59.2552 49.0539C56.0051 44.8949 50.7304 40.9984 42.1939 39.3003Z" fill="#E93323"/>
</g>
<defs>
<clipPath id="clip0_161_772">
<rect width="64" height="64" fill="white" transform="translate(0.5)"/>
</clipPath>
</defs>
</svg>
