<svg width="32" height="32" viewBox="0 0 32 32" fill="none" xmlns="http://www.w3.org/2000/svg">
<path d="M24.8719 23.4602L28.7779 27.3642C28.9601 27.5528 29.0609 27.8054 29.0586 28.0676C29.0563 28.3298 28.9511 28.5806 28.7657 28.766C28.5803 28.9514 28.3295 29.0566 28.0673 29.0588C27.8051 29.0611 27.5525 28.9603 27.3639 28.7782L23.4579 24.8722C20.9054 27.059 17.6051 28.1723 14.2495 27.9783C10.894 27.7844 7.74391 26.2982 5.46042 23.8318C3.17692 21.3654 1.93748 18.1104 2.00217 14.7498C2.06685 11.3892 3.43065 8.18434 5.80737 5.80761C8.18409 3.43089 11.389 2.0671 14.7496 2.00241C18.1101 1.93772 21.3651 3.17717 23.8316 5.46066C26.298 7.74416 27.7841 10.8942 27.9781 14.2498C28.1721 17.6054 27.0588 20.9057 24.8719 23.4582V23.4602ZM14.9999 26.0002C17.9173 26.0002 20.7152 24.8412 22.7781 22.7783C24.841 20.7154 25.9999 17.9175 25.9999 15.0002C25.9999 12.0828 24.841 9.28489 22.7781 7.22199C20.7152 5.15909 17.9173 4.00016 14.9999 4.00016C12.0825 4.00016 9.28464 5.15909 7.22174 7.22199C5.15884 9.28489 3.99992 12.0828 3.99992 15.0002C3.99992 17.9175 5.15884 20.7154 7.22174 22.7783C9.28464 24.8412 12.0825 26.0002 14.9999 26.0002Z" fill="#1D2939"/>
</svg>
