<svg width="32" height="32" viewBox="0 0 32 32" fill="none" xmlns="http://www.w3.org/2000/svg">
<path fill-rule="evenodd" clip-rule="evenodd" d="M20.9667 29.3337V19.007H24.4334L24.9521 14.983H20.9654V12.4137C20.9654 11.2483 21.2894 10.4537 22.9614 10.4537H25.0921V6.85366C24.0602 6.74385 23.0231 6.69044 21.9854 6.69366C18.9134 6.69366 16.8107 8.56966 16.8107 12.0137V14.983H13.3334V19.007H16.8094V29.3337H4.13875C3.32541 29.3337 2.66675 28.675 2.66675 27.8617V4.13899C2.66675 3.32566 3.32541 2.66699 4.13875 2.66699H27.8614C28.6747 2.66699 29.3334 3.32566 29.3334 4.13899V27.8617C29.3334 28.675 28.6747 29.3337 27.8614 29.3337H20.9667Z" fill="#E93323"/>
</svg>
