<svg width="20" height="21" viewBox="0 0 20 21" fill="none" xmlns="http://www.w3.org/2000/svg">
<path d="M15.7933 8.23281C15.9304 8.37685 16.0046 8.56942 15.9998 8.76819C15.9949 8.96696 15.9113 9.15566 15.7673 9.29281L10.5173 14.2948C10.3779 14.4278 10.1925 14.502 9.99984 14.502C9.80713 14.502 9.62182 14.4278 9.48234 14.2948L4.23234 9.29381C4.09414 9.15537 4.01549 8.96841 4.01317 8.77281C4.01086 8.5772 4.08506 8.38844 4.21994 8.24676C4.35483 8.10509 4.53974 8.02173 4.73522 8.01445C4.9307 8.00717 5.12129 8.07656 5.26634 8.20781L10.0003 12.7158L14.7343 8.20781C14.8783 8.07062 15.0707 7.9962 15.2695 8.00088C15.4683 8.00557 15.6561 8.08899 15.7933 8.23281Z" fill="#1D2939"/>
</svg>
