<svg width="20" height="21" viewBox="0 0 20 21" fill="none" xmlns="http://www.w3.org/2000/svg">
<path d="M4.20666 12.7672C4.0696 12.6231 3.99535 12.4306 4.00023 12.2318C4.0051 12.033 4.0887 11.8443 4.23266 11.7072L9.48266 6.70519C9.62214 6.57222 9.80745 6.49805 10.0002 6.49805C10.1929 6.49805 10.3782 6.57222 10.5177 6.70519L15.7677 11.7062C15.9059 11.8446 15.9845 12.0316 15.9868 12.2272C15.9891 12.4228 15.9149 12.6116 15.7801 12.7532C15.6452 12.8949 15.4603 12.9783 15.2648 12.9856C15.0693 12.9928 14.8787 12.9234 14.7337 12.7922L9.99966 8.28419L5.26566 12.7922C5.12175 12.9294 4.92925 13.0038 4.73048 12.9991C4.53172 12.9944 4.34394 12.911 4.20666 12.7672Z" fill="#1D2939"/>
</svg>
