<svg width="48" height="48" viewBox="0 0 48 48" fill="none" xmlns="http://www.w3.org/2000/svg">
<path fill-rule="evenodd" clip-rule="evenodd" d="M23.89 2.5H24.11C26.844 2.5 29.05 2.5 30.784 2.734C32.584 2.974 34.1 3.494 35.304 4.696C36.784 6.176 37.24 8.15 37.404 10.598C37.892 10.632 38.352 10.676 38.784 10.734C40.584 10.974 42.1 11.494 43.304 12.696C44.508 13.9 45.024 15.416 45.268 17.216C45.5 18.95 45.5 21.156 45.5 23.89V24.11C45.5 26.844 45.5 29.05 45.268 30.784C45.024 32.584 44.508 34.1 43.304 35.304C41.824 36.784 39.85 37.24 37.402 37.404C37.368 37.892 37.326 38.352 37.268 38.784C37.024 40.584 36.508 42.1 35.304 43.304C34.1 44.508 32.584 45.024 30.784 45.268C29.05 45.5 26.844 45.5 24.11 45.5H23.89C21.156 45.5 18.95 45.5 17.216 45.268C15.416 45.024 13.9 44.508 12.696 43.304C11.492 42.1 10.976 40.584 10.734 38.784C10.674 38.352 10.632 37.892 10.598 37.404C8.15 37.24 6.178 36.784 4.698 35.304C3.492 34.1 2.976 32.584 2.734 30.784C2.5 29.05 2.5 26.844 2.5 24.11V23.89C2.5 21.156 2.5 18.95 2.734 17.216C2.974 15.416 3.494 13.9 4.696 12.696C5.9 11.492 7.416 10.976 9.216 10.734C9.67436 10.6733 10.1346 10.628 10.596 10.598C10.76 8.15 11.216 6.178 12.696 4.698C13.9 3.492 15.416 2.976 17.216 2.734C18.95 2.5 21.156 2.5 23.89 2.5ZM13.614 10.506C14.328 10.5 15.086 10.5 15.89 10.5H32.11C32.914 10.5 33.67 10.5 34.386 10.506C34.222 8.466 33.852 7.49 33.182 6.818C32.628 6.264 31.852 5.904 30.382 5.706C28.872 5.504 26.87 5.5 24 5.5C21.13 5.5 19.126 5.504 17.616 5.706C16.148 5.904 15.372 6.266 14.818 6.818C14.148 7.49 13.778 8.464 13.614 10.506ZM10.506 34.386C10.5 33.672 10.5 32.914 10.5 32.11V31.5H10C9.60218 31.5 9.22064 31.342 8.93934 31.0607C8.65804 30.7794 8.5 30.3978 8.5 30C8.5 29.6022 8.65804 29.2206 8.93934 28.9393C9.22064 28.658 9.60218 28.5 10 28.5H38C38.3978 28.5 38.7794 28.658 39.0607 28.9393C39.342 29.2206 39.5 29.6022 39.5 30C39.5 30.3978 39.342 30.7794 39.0607 31.0607C38.7794 31.342 38.3978 31.5 38 31.5H37.5V32.11C37.5 32.914 37.5 33.67 37.494 34.386C39.534 34.222 40.512 33.852 41.182 33.182C41.736 32.628 42.096 31.852 42.294 30.382C42.496 28.872 42.5 26.87 42.5 24C42.5 21.13 42.496 19.126 42.294 17.616C42.096 16.148 41.734 15.372 41.182 14.818C40.628 14.264 39.852 13.904 38.382 13.706C36.872 13.504 34.87 13.5 32 13.5H16C13.13 13.5 11.126 13.504 9.616 13.706C8.148 13.904 7.372 14.266 6.818 14.818C6.264 15.372 5.904 16.148 5.706 17.618C5.504 19.126 5.5 21.13 5.5 24C5.5 26.87 5.504 28.874 5.706 30.384C5.904 31.852 6.266 32.628 6.818 33.182C7.49 33.852 8.464 34.222 10.506 34.386ZM34.5 31.5H13.5V32C13.5 34.87 13.504 36.872 13.706 38.384C13.904 39.852 14.266 40.628 14.818 41.182C15.372 41.736 16.148 42.096 17.618 42.294C19.126 42.496 21.13 42.5 24 42.5C26.87 42.5 28.874 42.496 30.384 42.294C31.852 42.096 32.628 41.734 33.182 41.182C33.736 40.628 34.096 39.852 34.294 38.382C34.496 36.872 34.5 34.87 34.5 32V31.5ZM10.5 20C10.5 19.6022 10.658 19.2206 10.9393 18.9393C11.2206 18.658 11.6022 18.5 12 18.5H18C18.3978 18.5 18.7794 18.658 19.0607 18.9393C19.342 19.2206 19.5 19.6022 19.5 20C19.5 20.3978 19.342 20.7794 19.0607 21.0607C18.7794 21.342 18.3978 21.5 18 21.5H12C11.6022 21.5 11.2206 21.342 10.9393 21.0607C10.658 20.7794 10.5 20.3978 10.5 20Z" fill="#E93323"/>
<path d="M36 20C36 20.5304 35.7893 21.0391 35.4142 21.4142C35.0391 21.7893 34.5304 22 34 22C33.4696 22 32.9609 21.7893 32.5858 21.4142C32.2107 21.0391 32 20.5304 32 20C32 19.4696 32.2107 18.9609 32.5858 18.5858C32.9609 18.2107 33.4696 18 34 18C34.5304 18 35.0391 18.2107 35.4142 18.5858C35.7893 18.9609 36 19.4696 36 20Z" fill="#E93323"/>
</svg>
