<svg width="48" height="48" viewBox="0 0 48 48" fill="none" xmlns="http://www.w3.org/2000/svg">
<path fill-rule="evenodd" clip-rule="evenodd" d="M21.888 6.5H26.112C29.788 6.5 32.7 6.5 34.978 6.806C37.322 7.122 39.22 7.786 40.718 9.282C42.214 10.78 42.878 12.678 43.194 15.022C43.496 17.274 43.5 20.142 43.5 23.758C44.188 24.324 44.734 25.058 45.08 25.896C45.322 26.476 45.416 27.076 45.46 27.71C45.5 28.318 45.5 29.06 45.5 29.95V30.05C45.5 30.94 45.5 31.682 45.46 32.29C45.4342 32.9115 45.3058 33.5244 45.08 34.104C44.8038 34.7715 44.3989 35.3781 43.8882 35.889C43.3776 36.4 42.7713 36.8054 42.104 37.082C41.524 37.322 40.924 37.416 40.29 37.458C40.027 37.4755 39.7636 37.4868 39.5 37.492V40C39.5 40.3978 39.342 40.7794 39.0607 41.0607C38.7794 41.342 38.3978 41.5 38 41.5C37.6022 41.5 37.2206 41.342 36.9393 41.0607C36.658 40.7794 36.5 40.3978 36.5 40V37.5H11.5V40C11.5 40.3978 11.342 40.7794 11.0607 41.0607C10.7794 41.342 10.3978 41.5 10 41.5C9.60218 41.5 9.22064 41.342 8.93934 41.0607C8.65804 40.7794 8.5 40.3978 8.5 40V37.49C8.23645 37.4855 7.97305 37.4748 7.71 37.458C7.08875 37.4334 6.47583 37.3064 5.896 37.082C5.22832 36.8056 4.62165 36.4003 4.11067 35.8893C3.59969 35.3784 3.19441 34.7717 2.918 34.104C2.678 33.524 2.584 32.924 2.542 32.29C2.5 31.682 2.5 30.94 2.5 30.05V29.95C2.5 29.06 2.5 28.318 2.54 27.71C2.584 27.074 2.68 26.476 2.92 25.896C3.26363 25.0641 3.80617 24.3293 4.5 23.756C4.5 20.144 4.504 17.274 4.806 15.022C5.122 12.678 5.786 10.78 7.282 9.282C8.78 7.786 10.678 7.122 13.022 6.806C15.302 6.5 18.212 6.5 21.888 6.5ZM7.5 22.558C8.16577 22.515 8.83286 22.4956 9.5 22.5V20.896C9.5 19.1 9.5 17.6 9.66 16.412C9.828 15.156 10.2 14.022 11.11 13.112C12.022 12.2 13.156 11.828 14.41 11.66C15.6 11.5 17.1 11.5 18.896 11.5H29.104C30.902 11.5 32.4 11.5 33.588 11.66C34.844 11.828 35.978 12.2 36.888 13.11C37.8 14.022 38.172 15.156 38.34 16.41C38.5 17.6 38.5 19.1 38.5 20.896V22.5C39.1671 22.4956 39.8342 22.515 40.5 22.558C40.494 19.488 40.46 17.208 40.22 15.422C39.95 13.41 39.442 12.25 38.596 11.402C37.75 10.558 36.59 10.05 34.578 9.78C32.524 9.504 29.814 9.5 26 9.5H22C18.186 9.5 15.478 9.504 13.42 9.78C11.41 10.05 10.25 10.558 9.404 11.404C8.558 12.25 8.05 13.41 7.78 15.422C7.54 17.208 7.506 19.488 7.5 22.558ZM35.5 22.5V21C35.5 19.072 35.496 17.776 35.366 16.81C35.242 15.888 35.028 15.492 34.766 15.232C34.506 14.972 34.112 14.758 33.19 14.632C32.224 14.504 30.928 14.5 29 14.5H25.5V22.5H35.5ZM22.5 22.5V14.5H19C17.072 14.5 15.776 14.504 14.81 14.634C13.888 14.758 13.492 14.972 13.232 15.234C12.972 15.494 12.758 15.888 12.632 16.81C12.504 17.776 12.5 19.072 12.5 21V22.5H22.5ZM7.914 25.534C7.432 25.568 7.198 25.626 7.044 25.69C6.74041 25.8156 6.46456 25.9999 6.23223 26.2322C5.9999 26.4646 5.81564 26.7404 5.69 27.044C5.626 27.198 5.568 27.432 5.534 27.914C5.5 28.408 5.5 29.048 5.5 30C5.5 30.952 5.5 31.592 5.534 32.086C5.568 32.568 5.626 32.802 5.69 32.956C5.944 33.57 6.43 34.056 7.044 34.31C7.198 34.374 7.432 34.432 7.914 34.466C8.408 34.5 9.048 34.5 10 34.5H38C38.952 34.5 39.592 34.5 40.086 34.466C40.568 34.432 40.802 34.374 40.956 34.31C41.57 34.056 42.056 33.57 42.31 32.956C42.374 32.802 42.432 32.568 42.466 32.086C42.5 31.592 42.5 30.952 42.5 30C42.5 29.048 42.5 28.408 42.466 27.914C42.432 27.432 42.374 27.198 42.31 27.044C42.1844 26.7404 42.0001 26.4646 41.7678 26.2322C41.5354 25.9999 41.2596 25.8156 40.956 25.69C40.802 25.626 40.568 25.568 40.086 25.534C39.3912 25.5014 38.6955 25.4901 38 25.5H10C9.048 25.5 8.408 25.5 7.914 25.534Z" fill="#E93323"/>
</svg>
