<svg width="20" height="20" viewBox="0 0 20 20" fill="none" xmlns="http://www.w3.org/2000/svg">
<path d="M17.3082 16.2753C17.3082 16.5753 17.2415 16.8837 17.0998 17.1837C16.9582 17.4837 16.7748 17.767 16.5332 18.0337C16.1248 18.4837 15.6748 18.8087 15.1665 19.017C14.6665 19.2253 14.1248 19.3337 13.5415 19.3337C12.6915 19.3337 11.7832 19.1337 10.8248 18.7253C9.8665 18.317 8.90817 17.767 7.95817 17.0753C6.99984 16.3753 6.0915 15.6003 5.22484 14.742C4.3665 13.8753 3.5915 12.967 2.89984 12.017C2.2165 11.067 1.6665 10.117 1.2665 9.17533C0.866504 8.22533 0.666504 7.31699 0.666504 6.45033C0.666504 5.88366 0.766504 5.34199 0.966504 4.84199C1.1665 4.33366 1.48317 3.86699 1.92484 3.45033C2.45817 2.92533 3.0415 2.66699 3.65817 2.66699C3.8915 2.66699 4.12484 2.71699 4.33317 2.81699C4.54984 2.91699 4.7415 3.06699 4.8915 3.28366L6.82484 6.00866C6.97484 6.21699 7.08317 6.40866 7.15817 6.59199C7.23317 6.76699 7.27484 6.94199 7.27484 7.10033C7.27484 7.30033 7.2165 7.50033 7.09984 7.69199C6.9915 7.88366 6.83317 8.08366 6.63317 8.28366L5.99984 8.94199C5.90817 9.03366 5.8665 9.14199 5.8665 9.27533C5.8665 9.34199 5.87484 9.40033 5.8915 9.46699C5.9165 9.53366 5.9415 9.58366 5.95817 9.63366C6.10817 9.90866 6.3665 10.267 6.73317 10.7003C7.10817 11.1337 7.50817 11.5753 7.9415 12.017C8.3915 12.4587 8.82484 12.867 9.2665 13.242C9.69984 13.6087 10.0582 13.8587 10.3415 14.0087C10.3832 14.0253 10.4332 14.0503 10.4915 14.0753C10.5582 14.1003 10.6248 14.1087 10.6998 14.1087C10.8415 14.1087 10.9498 14.0587 11.0415 13.967L11.6748 13.342C11.8832 13.1337 12.0832 12.9753 12.2748 12.8753C12.4665 12.7587 12.6582 12.7003 12.8665 12.7003C13.0248 12.7003 13.1915 12.7337 13.3748 12.8087C13.5582 12.8837 13.7498 12.992 13.9582 13.1337L16.7165 15.092C16.9332 15.242 17.0832 15.417 17.1748 15.6253C17.2582 15.8337 17.3082 16.042 17.3082 16.2753Z" stroke="#E93323" stroke-width="1.2" stroke-miterlimit="10"/>
<path d="M14.4167 8.50065C14.4167 8.00065 14.025 7.23398 13.4417 6.60898C12.9083 6.03398 12.2 5.58398 11.5 5.58398" stroke="#E93323" stroke-width="1.2" stroke-linecap="round" stroke-linejoin="round"/>
<path d="M17.3332 8.50033C17.3332 5.27533 14.7249 2.66699 11.4999 2.66699" stroke="#E93323" stroke-width="1.2" stroke-linecap="round" stroke-linejoin="round"/>
</svg>
