<svg width="20" height="20" viewBox="0 0 20 20" fill="none" xmlns="http://www.w3.org/2000/svg">
<path d="M17.3084 16.2748C17.3084 16.5748 17.2417 16.8832 17.1001 17.1832C16.9584 17.4832 16.7751 17.7665 16.5334 18.0332C16.1251 18.4832 15.6751 18.8082 15.1667 19.0165C14.6667 19.2248 14.1251 19.3332 13.5417 19.3332C12.6917 19.3332 11.7834 19.1332 10.8251 18.7248C9.86675 18.3165 8.90842 17.7665 7.95842 17.0748C7.00008 16.3748 6.09175 15.5998 5.22508 14.7415C4.36675 13.8748 3.59175 12.9665 2.90008 12.0165C2.21675 11.0665 1.66675 10.1165 1.26675 9.17484C0.866748 8.22484 0.666748 7.3165 0.666748 6.44984C0.666748 5.88317 0.766748 5.3415 0.966748 4.8415C1.16675 4.33317 1.48341 3.8665 1.92508 3.44984C2.45841 2.92484 3.04175 2.6665 3.65841 2.6665C3.89175 2.6665 4.12508 2.7165 4.33341 2.8165C4.55008 2.9165 4.74175 3.0665 4.89175 3.28317L6.82508 6.00817C6.97508 6.2165 7.08341 6.40817 7.15841 6.5915C7.23341 6.7665 7.27508 6.9415 7.27508 7.09984C7.27508 7.29984 7.21675 7.49984 7.10008 7.6915C6.99175 7.88317 6.83341 8.08317 6.63341 8.28317L6.00008 8.9415C5.90841 9.03317 5.86675 9.1415 5.86675 9.27484C5.86675 9.3415 5.87508 9.39984 5.89175 9.4665C5.91675 9.53317 5.94175 9.58317 5.95842 9.63317C6.10842 9.90817 6.36675 10.2665 6.73341 10.6998C7.10841 11.1332 7.50841 11.5748 7.94175 12.0165C8.39175 12.4582 8.82508 12.8665 9.26675 13.2415C9.70008 13.6082 10.0584 13.8582 10.3417 14.0082C10.3834 14.0248 10.4334 14.0498 10.4917 14.0748C10.5584 14.0998 10.6251 14.1082 10.7001 14.1082C10.8417 14.1082 10.9501 14.0582 11.0417 13.9665L11.6751 13.3415C11.8834 13.1332 12.0834 12.9748 12.2751 12.8748C12.4667 12.7582 12.6584 12.6998 12.8667 12.6998C13.0251 12.6998 13.1917 12.7332 13.3751 12.8082C13.5584 12.8832 13.7501 12.9915 13.9584 13.1332L16.7167 15.0915C16.9334 15.2415 17.0834 15.4165 17.1751 15.6248C17.2584 15.8332 17.3084 16.0415 17.3084 16.2748Z" stroke="#E93323" stroke-width="1.2" stroke-miterlimit="10"/>
<path d="M14.4167 8.49967C14.4167 7.99967 14.025 7.23301 13.4417 6.60801C12.9083 6.03301 12.2 5.58301 11.5 5.58301" stroke="#E93323" stroke-width="1.2" stroke-linecap="round" stroke-linejoin="round"/>
<path d="M17.3333 8.49984C17.3333 5.27484 14.725 2.6665 11.5 2.6665" stroke="#E93323" stroke-width="1.2" stroke-linecap="round" stroke-linejoin="round"/>
</svg>
