<svg width="264" height="48" viewBox="0 0 264 48" fill="none" xmlns="http://www.w3.org/2000/svg">
<g clip-path="url(#clip0_101_38)">
<path d="M24.0003 47.5C37.2555 47.5 48.0003 36.979 48.0003 24V7.55C48.0003 5.68022 47.2417 3.88703 45.8914 2.5649C44.5412 1.24277 42.7098 0.5 40.8003 0.5L25.2003 0.5V10.8095C25.2003 13.1618 25.3467 15.5987 26.6067 17.6009C27.5087 19.0359 28.7154 20.264 30.1448 21.2021C31.5743 22.1401 33.1931 22.7662 34.8915 23.0377L35.3511 23.1105C35.5405 23.1739 35.705 23.2938 35.8215 23.4533C35.9379 23.6128 36.0006 23.8039 36.0006 24C36.0006 24.1961 35.9379 24.3872 35.8215 24.5467C35.705 24.7062 35.5405 24.8261 35.3511 24.8895L34.8915 24.9623C32.4101 25.3592 30.1187 26.5093 28.3408 28.2501C26.5629 29.9909 25.3884 32.2346 24.9831 34.6643L24.9087 35.1143C24.8439 35.2999 24.7215 35.4609 24.5586 35.5749C24.3957 35.689 24.2005 35.7503 24.0003 35.7503C23.8 35.7503 23.6048 35.689 23.4419 35.5749C23.279 35.4609 23.1566 35.2999 23.0919 35.1143L23.0175 34.6643C22.7401 33.0014 22.1007 31.4163 21.1427 30.0166C20.1847 28.617 18.9305 27.4354 17.4651 26.5521C15.4203 25.3183 12.9315 25.175 10.5291 25.175H0.0290527C0.656653 37.6077 11.1483 47.5 24.0003 47.5Z" fill="#1D2939"/>
<path d="M0 22.825H10.5288C12.9312 22.825 15.42 22.6816 17.4648 21.4479C19.0632 20.4836 20.4088 19.1661 21.3936 17.6009C22.6536 15.5987 22.8 13.1618 22.8 10.8095V0.5H7.2C5.29044 0.5 3.45909 1.24277 2.10883 2.5649C0.758569 3.88703 0 5.68022 0 7.55L0 22.825ZM55.746 2.85C55.746 3.47326 55.4931 4.07099 55.0431 4.5117C54.593 4.95241 53.9825 5.2 53.346 5.2C52.7095 5.2 52.099 4.95241 51.6489 4.5117C51.1989 4.07099 50.946 3.47326 50.946 2.85C50.946 2.22674 51.1989 1.62901 51.6489 1.1883C52.099 0.747589 52.7095 0.5 53.346 0.5C53.9825 0.5 54.593 0.747589 55.0431 1.1883C55.4931 1.62901 55.746 2.22674 55.746 2.85ZM254.053 14.7222C260.762 14.7222 264 19.3106 264 24.6251V34.6067H256.979V25.8095C256.979 23.4008 256.081 21.4126 253.507 21.4126C250.933 21.4126 250.075 23.4008 250.075 25.8095V34.6055H243.054V25.8095C243.054 23.4008 242.196 21.4126 239.621 21.4126C237.047 21.4126 236.149 23.4008 236.149 25.8095V34.6055H229.129V24.6239C229.129 19.3094 232.366 14.721 239.075 14.721C242.742 14.721 245.394 16.1357 246.604 18.4681C247.89 16.1357 250.699 14.7198 254.053 14.7198V14.7222ZM216.512 28.4885C218.774 28.4885 219.75 26.4616 219.75 24.0517V15.4859H226.77V24.893C226.77 30.5142 223.416 35.1801 216.512 35.1801C209.608 35.1801 206.254 30.5154 206.254 24.893V15.4859H213.275V24.0517C213.275 26.4604 214.249 28.4885 216.512 28.4885ZM195.93 35.2177C191.522 35.2177 188.675 33.7267 186.997 30.8209L192.068 28.0291C192.77 29.2523 193.823 29.8644 195.578 29.8644C197.022 29.8644 197.684 29.3674 197.684 28.7552C197.684 26.4228 187.387 28.794 187.387 21.3762C187.387 17.7807 190.507 14.8749 195.812 14.8749C200.454 14.8749 202.99 17.0922 204.121 19.2342L199.05 22.0636C198.622 20.9168 197.294 20.2283 195.968 20.2283C194.954 20.2283 194.408 20.6489 194.408 21.2223C194.408 23.5934 204.706 21.4138 204.706 28.6025C204.706 32.6174 200.688 35.2177 195.93 35.2177ZM171.4 43.4016H164.378V25.0081C164.378 19.1566 168.864 14.9125 175.105 14.9125C181.19 14.9125 185.832 19.4633 185.832 25.0081C185.832 31.1264 181.697 35.1801 175.495 35.1801C174.052 35.1801 172.609 34.7595 171.4 34.1085V43.4016ZM175.105 28.7176C177.329 28.7176 178.811 27.035 178.811 25.0457C178.811 23.02 177.329 21.375 175.105 21.375C172.882 21.375 171.4 23.0201 171.4 25.0469C171.4 27.035 172.882 28.7176 175.105 28.7176ZM157.345 13.4602C155.044 13.4602 153.133 11.5861 153.133 9.33012C153.133 7.07412 155.044 5.2 157.345 5.2C159.647 5.2 161.558 7.07412 161.558 9.33012C161.558 11.5861 159.647 13.4602 157.345 13.4602ZM153.835 15.4859H160.856V34.6067H153.835V15.4859ZM140.364 35.1801C134.279 35.1801 129.637 30.5917 129.637 25.0081C129.637 19.4633 134.279 14.8749 140.364 14.8749C146.449 14.8749 151.091 19.4633 151.091 25.0081C151.091 30.5917 146.449 35.1801 140.364 35.1801ZM140.364 28.7176C142.588 28.7176 144.07 27.035 144.07 25.0457C144.07 23.02 142.588 21.3374 140.364 21.3374C138.14 21.3374 136.658 23.02 136.658 25.0457C136.658 27.035 138.14 28.7176 140.364 28.7176ZM116.38 43.975C111.544 43.975 108.032 41.8717 106.238 38.1235L112.05 35.065C112.674 36.3657 113.844 37.704 116.262 37.704C118.799 37.704 120.475 36.1354 120.671 33.3824C119.735 34.1861 118.252 34.7971 116.029 34.7971C110.606 34.7971 106.237 30.7057 106.237 24.9694C106.237 19.4257 110.88 14.9125 116.965 14.9125C123.206 14.9125 127.692 19.1578 127.692 25.0081V32.5798C127.692 39.463 122.815 43.975 116.38 43.975ZM116.848 28.3357C118.954 28.3357 120.553 26.9199 120.553 24.8166C120.553 22.7521 118.955 21.375 116.848 21.375C114.78 21.375 113.142 22.7521 113.142 24.8178C113.142 26.921 114.78 28.3346 116.848 28.3346V28.3357ZM94.3284 35.1801C88.2432 35.1801 83.6004 30.5917 83.6004 25.0081C83.6004 19.4633 88.2432 14.8749 94.3284 14.8749C100.412 14.8749 105.055 19.4633 105.055 25.0081C105.055 30.5917 100.414 35.1801 94.3284 35.1801ZM94.3284 28.7176C96.552 28.7176 98.034 27.035 98.034 25.0457C98.034 23.02 96.552 21.3374 94.3284 21.3374C92.1048 21.3374 90.6228 23.02 90.6228 25.0457C90.6228 27.035 92.1048 28.7176 94.3284 28.7176ZM70.8156 8.7955V28.1054H82.44V34.6067H69.84C65.394 34.6067 63.6 32.3119 63.6 28.6789V8.7955H70.8156Z" fill="#1D2939"/>
</g>
<defs>
<clipPath id="clip0_101_38">
<rect width="264" height="47" fill="white" transform="translate(0 0.5)"/>
</clipPath>
</defs>
</svg>
