<svg width="64" height="64" viewBox="0 0 64 64" fill="none" xmlns="http://www.w3.org/2000/svg">
<g clip-path="url(#clip0_161_880)">
<path fill-rule="evenodd" clip-rule="evenodd" d="M62.9339 15.9994C62.9391 16.5894 62.6982 17.1548 62.269 17.5597C61.8398 17.9646 61.2613 18.1723 60.6726 18.1327C60.0442 18.1321 59.4488 18.4141 59.0513 18.9007C56.7686 21.6527 52.0539 25.5994 43.7339 25.5994C43.7575 24.3897 43.255 23.2292 42.3565 22.4188C41.4581 21.6084 40.2522 21.2277 39.0513 21.3754C28.6683 22.5691 18.1877 22.6513 7.78727 21.6207H7.77661C6.73735 20.8206 5.78941 19.9085 4.94994 18.9007C4.55238 18.4141 3.95701 18.1321 3.3286 18.1327C2.62089 18.1693 1.94062 17.8548 1.50998 17.2919C1.07935 16.7291 0.95365 15.9903 1.17394 15.3167C1.5061 14.4206 2.37338 13.8367 3.3286 13.8661C3.95701 13.8668 4.55238 13.5847 4.94994 13.0981C7.23261 10.3461 11.9473 6.39941 20.2673 6.39941H43.7339C52.0539 6.39941 56.7686 10.3461 59.0513 13.0981C59.4488 13.5847 60.0442 13.8668 60.6726 13.8661C61.2613 13.8266 61.8398 14.0342 62.269 14.4391C62.6982 14.844 62.9391 15.4094 62.9339 15.9994Z" fill="#FC7C7C"/>
<path fill-rule="evenodd" clip-rule="evenodd" d="M62.8265 15.3167C62.4944 14.4206 61.6271 13.8367 60.6719 13.8661C60.0435 13.8668 59.4481 13.5847 59.0505 13.0981C56.7679 10.3461 52.0532 6.39941 43.7332 6.39941H40.5332C48.8532 6.39941 53.5679 10.3461 55.8505 13.0981C56.2481 13.5847 56.8435 13.8668 57.4719 13.8661C58.1796 13.8296 58.8599 14.1441 59.2905 14.7069C59.7211 15.2697 59.8468 16.0085 59.6265 16.6821C59.2944 17.5782 58.4271 18.1621 57.4719 18.1327C56.8435 18.1321 56.2481 18.4141 55.8505 18.9007C52.7849 22.5382 48.4397 24.8598 43.7119 25.3861C43.7119 25.4565 43.7332 25.5237 43.7332 25.5994C52.0532 25.5994 56.7679 21.6527 59.0505 18.9007C59.4481 18.4141 60.0435 18.1321 60.6719 18.1327C61.3796 18.1693 62.0599 17.8548 62.4905 17.2919C62.9211 16.7291 63.0468 15.9903 62.8265 15.3167Z" fill="#FBD7D7"/>
<path fill-rule="evenodd" clip-rule="evenodd" d="M62.9337 35.1996C62.9389 35.7896 62.6979 36.355 62.2687 36.7599C61.8395 37.1648 61.261 37.3725 60.6723 37.3329C60.0439 37.3323 59.4486 37.6143 59.051 38.1009C57.9263 39.4543 56.607 40.6334 55.1363 41.5996H42.8057C42.452 36.5353 42.7351 31.4467 43.6483 26.4529C43.7079 26.1725 43.7365 25.8863 43.7337 25.5996C52.0537 25.5996 56.7683 29.5463 59.051 32.2983C59.4486 32.7849 60.0439 33.067 60.6723 33.0663C61.261 33.0268 61.8395 33.2344 62.2687 33.6393C62.6979 34.0442 62.9389 34.6096 62.9337 35.1996Z" fill="#FC7C7C"/>
<path fill-rule="evenodd" clip-rule="evenodd" d="M62.8266 34.5169C62.4944 33.6208 61.6271 33.0369 60.6719 33.0663C60.0435 33.067 59.4481 32.7849 59.0506 32.2983C56.7679 29.5463 52.0532 25.5996 43.7332 25.5996C43.7332 25.6689 43.7268 25.7404 43.7236 25.8129C48.4473 26.3421 52.7878 28.6634 55.8506 32.2983C56.2481 32.7849 56.8435 33.067 57.4719 33.0663C58.6501 33.0663 59.6052 34.0214 59.6052 35.1996C59.6052 36.3778 58.6501 37.3329 57.4719 37.3329C56.8435 37.3323 56.2481 37.6143 55.8506 38.1009C54.7258 39.4543 53.4066 40.6334 51.9359 41.5996H55.1359C56.6066 40.6334 57.9258 39.4543 59.0506 38.1009C59.4481 37.6143 60.0435 37.3323 60.6719 37.3329C61.3796 37.3695 62.0599 37.0549 62.4905 36.4921C62.9212 35.9293 63.0469 35.1905 62.8266 34.5169Z" fill="#FBD7D7"/>
<path fill-rule="evenodd" clip-rule="evenodd" d="M43.6484 26.4533C42.7351 31.4471 42.452 36.5357 42.8057 41.6H28.8004C25.8549 41.6 23.467 43.9878 23.467 46.9333C23.467 49.8788 25.8549 52.2666 28.8004 52.2666H26.1337C25.9106 52.2681 25.6885 52.2967 25.4724 52.352H25.451C18.87 52.1952 12.2861 52.5088 5.74971 53.2906C4.39875 53.4507 3.05391 52.9468 2.14082 51.9383C1.22772 50.9299 0.859377 49.5418 1.15237 48.2133C2.4537 41.0183 2.4537 33.6483 1.15237 26.4533C0.859377 25.1248 1.22772 23.7367 2.14082 22.7283C3.05391 21.7199 4.39875 21.2159 5.74971 21.376C6.40037 21.4613 7.07237 21.5466 7.77637 21.6213H7.78704C18.1874 22.6519 28.6681 22.5696 39.051 21.376C40.2519 21.2283 41.4579 21.6089 42.3563 22.4194C43.2547 23.2298 43.7573 24.3902 43.7337 25.6C43.7365 25.8867 43.7079 26.1728 43.6484 26.4533Z" fill="#FBD7D7"/>
<path fill-rule="evenodd" clip-rule="evenodd" d="M43.7337 25.6C43.7573 24.3902 43.2547 23.2298 42.3563 22.4194C41.4579 21.6089 40.2519 21.2283 39.051 21.376C38.6105 21.4368 38.1508 21.4933 37.6868 21.5477C39.4057 22.1494 40.5505 23.7789 40.5337 25.6C40.5365 25.8867 40.5079 26.1728 40.4484 26.4533C39.5351 31.4471 39.252 36.5357 39.6057 41.6H42.8057C42.452 36.5357 42.7351 31.4471 43.6484 26.4533C43.7079 26.1728 43.7365 25.8867 43.7337 25.6Z" fill="#FC7C7C"/>
<path fill-rule="evenodd" clip-rule="evenodd" d="M28.7999 41.5996H25.5999C22.6544 41.5996 20.2666 43.9874 20.2666 46.9329C20.2666 49.8785 22.6544 52.2663 25.5999 52.2663H22.9333C22.767 52.2715 22.6016 52.293 22.4394 52.3303C23.4453 52.3303 24.4511 52.3303 25.4506 52.3516H25.4719C25.6881 52.2964 25.9102 52.2677 26.1333 52.2663H28.7999C25.8544 52.2663 23.4666 49.8785 23.4666 46.9329C23.4666 43.9874 25.8544 41.5996 28.7999 41.5996Z" fill="#FC7C7C"/>
<path fill-rule="evenodd" clip-rule="evenodd" d="M62.9337 52.2663C62.9379 53.6821 62.3774 55.0411 61.3763 56.0422C60.3752 57.0433 59.0161 57.6039 57.6003 57.5996H26.1337C25.0536 57.6015 24.0791 56.9518 23.6655 55.9541C23.2519 54.9564 23.481 53.8077 24.2457 53.0449C24.581 52.7139 24.9962 52.4751 25.451 52.3516H25.4723C25.6885 52.2964 25.9106 52.2677 26.1337 52.2663H28.8003C25.8548 52.2663 23.467 49.8785 23.467 46.9329C23.467 43.9874 25.8548 41.5996 28.8003 41.5996H60.267C61.7398 41.5996 62.9337 42.7935 62.9337 44.2663C62.9337 45.739 61.7398 46.9329 60.267 46.9329H57.6003C60.5459 46.9329 62.9337 49.3208 62.9337 52.2663Z" fill="#FBD7D7"/>
<path fill-rule="evenodd" clip-rule="evenodd" d="M57.6004 46.9329H60.2671C61.7398 46.9329 62.9337 45.739 62.9337 44.2663C62.9337 42.7935 61.7398 41.5996 60.2671 41.5996H57.0671C58.5398 41.5996 59.7337 42.7935 59.7337 44.2663C59.7337 45.739 58.5398 46.9329 57.0671 46.9329H54.4004C57.3459 46.9329 59.7337 49.3208 59.7337 52.2663C59.7337 55.2118 57.3459 57.5996 54.4004 57.5996H57.6004C60.5459 57.5996 62.9337 55.2118 62.9337 52.2663C62.9337 49.3208 60.5459 46.9329 57.6004 46.9329Z" fill="#FC7C7C"/>
<path fill-rule="evenodd" clip-rule="evenodd" d="M4.35237 48.2128C5.6537 41.0178 5.6537 33.6477 4.35237 26.4527C3.91232 24.3498 5.10458 22.2477 7.13531 21.5461C6.66704 21.4917 6.19451 21.4394 5.74864 21.3786C4.39855 21.2193 3.05479 21.723 2.14213 22.7305C1.22946 23.7381 0.860685 25.125 1.15237 26.4527C2.4537 33.6477 2.4537 41.0178 1.15237 48.2128C0.859377 49.5412 1.22772 50.9293 2.14082 51.9378C3.05391 52.9462 4.39875 53.4501 5.74971 53.2901C6.19664 53.2282 6.67024 53.177 7.13637 53.1226C5.10378 52.4213 3.91064 50.3171 4.35237 48.2128Z" fill="white"/>
<path fill-rule="evenodd" clip-rule="evenodd" d="M3.32825 18.1327C4.90478 18.1327 4.85145 19.2975 7.53838 21.4309C8.00181 21.3292 8.4796 21.3104 8.94958 21.3754C9.60025 21.4607 10.2722 21.5461 10.9762 21.6207C8.03758 19.3637 8.15171 18.1327 6.52825 18.1327C5.57302 18.1621 4.70574 17.5782 4.37358 16.6821C4.15219 16.0085 4.27745 15.269 4.70832 14.7059C5.1392 14.1428 5.82019 13.8285 6.52825 13.8661C7.15665 13.8668 7.75202 13.5847 8.14958 13.0981C10.4322 10.3461 15.1469 6.39941 23.4669 6.39941H20.2669C11.9469 6.39941 7.23225 10.3461 4.94958 13.0981C4.55202 13.5847 3.95665 13.8668 3.32825 13.8661C2.62019 13.8285 1.9392 14.1428 1.50832 14.7059C1.07745 15.269 0.952193 16.0085 1.17358 16.6821C1.50574 17.5782 2.37302 18.1621 3.32825 18.1327Z" fill="white"/>
<path fill-rule="evenodd" clip-rule="evenodd" d="M3.14849 34.8888L1.01516 34.9645C0.933691 32.1789 0.630151 29.4042 0.107422 26.6669L2.19809 26.2402C2.74449 29.0932 3.06229 31.9852 3.14849 34.8888Z" fill="white"/>
<path d="M59.8723 19.5805C60.0676 19.339 60.3618 19.199 60.6723 19.1997C62.0909 19.2263 63.3678 18.3433 63.8435 17.0066C64.0525 16.3523 64.0525 15.6492 63.8435 14.9949C63.3688 13.6571 62.0916 12.773 60.6723 12.7997C60.3612 12.8002 60.0667 12.6598 59.8712 12.4178C57.6771 9.77141 52.6638 5.33301 43.7336 5.33301H20.267C11.3368 5.33301 6.32351 9.77141 4.12831 12.4189C3.933 12.6603 3.63886 12.8003 3.32831 12.7997C1.90972 12.773 0.632861 13.656 0.157109 14.9927C-0.0518269 15.647 -0.0518269 16.3502 0.157109 17.0045C0.631859 18.3422 1.90907 19.2263 3.32831 19.1997C3.64041 19.1993 3.93584 19.3405 4.13151 19.5837C4.33844 19.8322 4.56991 20.053 4.78751 20.2887C3.51733 20.3868 2.33014 20.9577 1.46058 21.8887C0.261534 23.1677 -0.243028 24.9485 0.106976 26.6663C0.183193 27.04 0.452961 27.3446 0.814661 27.4654C1.17636 27.5862 1.57504 27.5049 1.86053 27.2521C2.14601 26.9993 2.27493 26.6133 2.19871 26.2397C1.98269 25.2045 2.28619 24.1292 3.01151 23.3597C3.67507 22.6504 4.64093 22.3062 5.60351 22.4359C16.7638 23.7341 28.0369 23.7341 39.1971 22.4359C40.0542 22.3148 40.9213 22.5757 41.5694 23.1495C42.273 23.7686 42.6734 24.6625 42.667 25.5997C42.6693 25.8147 42.6478 26.0294 42.603 26.2397C41.7317 30.9509 41.4238 35.749 41.6856 40.533H38.5635C38.0533 35.6184 38.6912 30.6524 40.427 26.0263C40.5729 25.6725 40.5181 25.2675 40.2832 24.9652C40.0483 24.6629 39.6695 24.5097 39.2905 24.5636C38.9115 24.6176 38.5905 24.8705 38.4494 25.2263C36.6105 30.106 35.9167 35.3428 36.4216 40.533H28.8003C26.2589 40.534 23.9589 42.0387 22.9399 44.3669C21.9209 46.6951 22.376 49.4056 24.0995 51.2733C17.9188 51.1708 11.7383 51.4916 5.60138 52.2333C4.63819 52.3689 3.66987 52.0224 3.01151 51.3063C2.28619 50.5369 1.98269 49.4615 2.19871 48.4263C3.02446 43.9653 3.34292 39.4251 3.14804 34.8925C3.14068 34.6074 3.0183 34.3374 2.80875 34.1439C2.5992 33.9504 2.3203 33.8499 2.03551 33.8653C1.45283 33.8957 1.00052 34.3849 1.01578 34.9682C1.20399 39.3324 0.899133 43.7039 0.106976 47.9997C-0.240472 49.7151 0.263917 51.4926 1.46058 52.7698C2.4182 53.8058 3.76392 54.3963 5.17471 54.3997C5.41561 54.3995 5.65621 54.3824 5.89471 54.3485C11.4858 53.6652 17.1155 53.347 22.748 53.3959C22.217 54.5481 22.3105 55.8917 22.9962 56.9591C23.6819 58.0266 24.8649 58.6703 26.1336 58.6663H57.6003C60.2326 58.6697 62.5978 57.0588 63.5587 54.6082C64.5197 52.1575 63.8799 49.3684 61.947 47.5815C63.4893 46.806 64.2961 45.0719 63.8958 43.3926C63.4956 41.7133 61.9933 40.5295 60.267 40.533H58.2126C58.8044 39.9866 59.3589 39.4011 59.8723 38.7805C60.0676 38.539 60.3618 38.399 60.6723 38.3997C62.0909 38.4263 63.3678 37.5433 63.8435 36.2066C64.0525 35.5523 64.0525 34.8492 63.8435 34.1949C63.3688 32.8571 62.0916 31.973 60.6723 31.9997C60.3612 32.0002 60.0667 31.8598 59.8712 31.6178C57.4967 28.7925 54.3643 26.7045 50.843 25.5997C54.3647 24.4944 57.4974 22.4061 59.8723 19.5805ZM61.4008 43.1335C61.8598 43.5913 61.9972 44.2808 61.7488 44.8795C61.5003 45.4783 60.9152 45.8679 60.267 45.8663H28.8003C28.2112 45.8663 27.7336 46.3439 27.7336 46.933C27.7336 47.5221 28.2112 47.9997 28.8003 47.9997H57.6003C59.9567 47.9997 61.867 49.9099 61.867 52.2663C61.867 54.6228 59.9567 56.533 57.6003 56.533H26.1336C25.25 56.533 24.5336 55.8167 24.5336 54.933C24.5336 54.0494 25.25 53.333 26.1336 53.333H57.6003C58.1894 53.333 58.667 52.8554 58.667 52.2663C58.667 51.6772 58.1894 51.1997 57.6003 51.1997H28.8003C26.4439 51.1997 24.5336 49.2894 24.5336 46.933C24.5336 44.5766 26.4439 42.6663 28.8003 42.6663H60.267C60.6918 42.6665 61.0993 42.8344 61.4008 43.1335ZM58.2286 32.9789C58.8299 33.7093 59.7262 34.1326 60.6723 34.133C61.1623 34.1096 61.6157 34.3921 61.8104 34.8423C61.8482 34.9577 61.8673 35.0783 61.867 35.1997C61.8672 35.3217 61.8481 35.443 61.8104 35.5591C61.6147 36.0084 61.1617 36.2898 60.6723 36.2663C59.7255 36.2668 58.8285 36.691 58.2275 37.4226C57.2304 38.6122 56.0743 39.6588 54.7918 40.533H43.8222C43.7368 38.7613 43.7219 36.9639 43.7795 35.1997H50.1336C50.7227 35.1997 51.2003 34.7221 51.2003 34.133C51.2003 33.5439 50.7227 33.0663 50.1336 33.0663H43.8851C44.0111 30.9264 44.2795 28.7973 44.6883 26.693C51.756 26.9671 55.9438 30.2226 58.2286 32.9789ZM44.6936 24.5063C44.4623 23.3558 43.8593 22.3131 42.9774 21.5389C41.8668 20.5529 40.3779 20.1068 38.908 20.3197C28.7171 21.4942 18.4305 21.5872 8.22004 20.597C7.32641 19.89 6.50723 19.0937 5.77524 18.2205C5.17323 17.4892 4.27551 17.0658 3.32831 17.0663C2.83828 17.0898 2.38496 16.8073 2.19018 16.357C2.1524 16.2417 2.13331 16.121 2.13364 15.9997C2.13347 15.8776 2.15255 15.7563 2.19018 15.6402C2.38588 15.191 2.83888 14.9095 3.32831 14.933C4.2739 14.9329 5.1699 14.5099 5.77098 13.7799C8.15924 10.8999 12.6126 7.46634 20.267 7.46634H43.7336C51.388 7.46634 55.8414 10.8999 58.2286 13.7789C58.8299 14.5093 59.7262 14.9326 60.6723 14.933C61.1623 14.9096 61.6157 15.1921 61.8104 15.6423C61.8482 15.7577 61.8673 15.8783 61.867 15.9997C61.8672 16.1217 61.8481 16.243 61.8104 16.3591C61.6147 16.8084 61.1617 17.0898 60.6723 17.0663C59.7267 17.0665 58.8307 17.4894 58.2296 18.2194C55.9438 20.9767 51.7571 24.2322 44.6936 24.5063Z" fill="#E93323"/>
<path fill-rule="evenodd" clip-rule="evenodd" d="M50.1341 13.8662H13.8674C13.2783 13.8662 12.8008 14.3438 12.8008 14.9329C12.8008 15.522 13.2783 15.9995 13.8674 15.9995H50.1341C50.7232 15.9995 51.2008 15.522 51.2008 14.9329C51.2008 14.3438 50.7232 13.8662 50.1341 13.8662Z" fill="#E93323"/>
<path fill-rule="evenodd" clip-rule="evenodd" d="M1.80712 31.7359C1.21802 31.7388 0.738067 31.2636 0.735121 30.6745C0.732176 30.0854 1.20735 29.6055 1.79645 29.6025H1.80712C2.39622 29.6025 2.87379 30.0801 2.87379 30.6692C2.87379 31.2583 2.39622 31.7359 1.80712 31.7359Z" fill="#E93323"/>
<path fill-rule="evenodd" clip-rule="evenodd" d="M4.966 50.0264C5.5112 50.246 6.13132 49.9832 6.35266 49.4387C9.25061 41.6228 9.24152 33.0255 6.32706 25.2157C6.1919 24.8497 5.86766 24.5867 5.48163 24.5299C5.09559 24.4732 4.70937 24.6317 4.47455 24.9433C4.23974 25.2549 4.19381 25.6699 4.3548 26.0253C7.07385 33.3171 7.08066 41.3434 4.374 48.6397C4.15487 49.1861 4.41982 49.8067 4.966 50.0264Z" fill="#E93323"/>
</g>
<defs>
<clipPath id="clip0_161_880">
<rect width="64" height="64" fill="white"/>
</clipPath>
</defs>
</svg>
