<svg width="64" height="64" viewBox="0 0 64 64" fill="none" xmlns="http://www.w3.org/2000/svg">
<path d="M15.9997 20.2665V43.7331C15.9997 47.8569 12.6568 51.1998 8.53307 51.1998C4.40935 51.1998 1.06641 47.8569 1.06641 43.7331V20.2665C1.06641 16.1427 4.40935 12.7998 8.53307 12.7998C12.6568 12.7998 15.9997 16.1427 15.9997 20.2665Z" fill="#FC7C7C"/>
<path d="M13.8136 14.9865C12.416 13.5821 10.5149 12.7947 8.53359 12.7998C7.99554 12.8007 7.45913 12.8594 6.93359 12.9748C10.3588 13.7262 12.7996 16.7599 12.8003 20.2665V43.7332C12.8019 47.2404 10.36 50.275 6.93359 51.0238C9.1424 51.5125 11.4536 50.972 13.2166 49.5544C14.9795 48.1367 16.0035 45.9954 16.0003 43.7332V20.2665C16.0054 18.2852 15.218 16.3841 13.8136 14.9865Z" fill="#FC7C7C"/>
<path d="M28.8001 14.9329V28.7995C28.8001 30.5668 27.3674 31.9995 25.6001 31.9995H19.2001C17.4328 31.9995 16.0001 30.5668 16.0001 28.7995V20.2662C16.0001 16.1425 12.6572 12.7995 8.53345 12.7995H18.1334C21.8 12.747 25.4358 13.4742 28.8001 14.9329Z" fill="#FBD7D7"/>
<path d="M18.1336 12.7995H14.9336C18.6001 12.747 22.236 13.4742 25.6003 14.9329V28.7995C25.6003 30.5668 24.1676 31.9995 22.4003 31.9995H25.6003C27.3676 31.9995 28.8003 30.5668 28.8003 28.7995V14.9329C25.436 13.4742 21.8001 12.747 18.1336 12.7995Z" fill="#FC7C7C"/>
<path d="M28.8001 28.7998V49.0665C25.4358 50.5251 21.8 51.2523 18.1334 51.1998H8.53345C12.6572 51.1998 16.0001 47.8569 16.0001 43.7331V28.7998C16.0001 30.5671 17.4328 31.9998 19.2001 31.9998H25.6001C27.3674 31.9998 28.8001 30.5671 28.8001 28.7998Z" fill="#FBD7D7"/>
<path d="M27.8616 31.0611C27.2625 31.6621 26.4488 31.9999 25.6003 31.9998V49.0665C22.236 50.5251 18.6001 51.2523 14.9336 51.1998H18.1336C21.8001 51.2523 25.436 50.5251 28.8003 49.0665V28.7998C28.8003 29.6484 28.4626 30.4621 27.8616 31.0611Z" fill="#FC7C7C"/>
<path d="M45.8667 14.9329V28.7996C45.8667 30.5669 44.434 31.9996 42.6667 31.9996H32C30.2327 31.9996 28.8 30.5669 28.8 28.7996V14.9329C31.3975 13.4588 34.3478 12.7212 37.3334 12.7996C40.3189 12.7212 43.2693 13.4588 45.8667 14.9329Z" fill="#FBD7D7"/>
<path d="M37.3334 12.7996C36.7745 12.7996 36.2443 12.8273 35.7334 12.8689C38.1731 13.011 40.5465 13.7176 42.6667 14.9329V28.7996C42.6667 30.5669 41.234 31.9996 39.4667 31.9996H42.6667C44.434 31.9996 45.8667 30.5669 45.8667 28.7996V14.9329C43.2693 13.4588 40.319 12.7212 37.3334 12.7996Z" fill="#FC7C7C"/>
<path d="M45.8667 28.7998V49.0665C43.2693 50.5406 40.3189 51.2782 37.3334 51.1998C34.3478 51.2782 31.3975 50.5406 28.8 49.0665V28.7998C28.8 30.5671 30.2327 31.9998 32 31.9998H42.6667C44.434 31.9998 45.8667 30.5671 45.8667 28.7998Z" fill="#FBD7D7"/>
<path d="M44.9281 31.0611C44.329 31.6621 43.5153 31.9999 42.6667 31.9998V49.0665C40.5465 50.2819 38.1731 50.9884 35.7334 51.1305C36.2443 51.1721 36.7745 51.1998 37.3334 51.1998C40.319 51.2782 43.2693 50.5406 45.8667 49.0665V28.7998C45.8668 29.6484 45.529 30.4621 44.9281 31.0611Z" fill="#FC7C7C"/>
<path d="M62.9329 20.2665V28.7998C62.9329 30.5671 61.5002 31.9998 59.7329 31.9998H49.0662C47.2989 31.9998 45.8662 30.5671 45.8662 28.7998V14.9331C45.8662 14.9331 49.0662 12.7998 55.4662 12.7998C57.4465 12.7998 59.3457 13.5865 60.7459 14.9867C62.1462 16.387 62.9329 18.2862 62.9329 20.2665Z" fill="#FBD7D7"/>
<path d="M60.7463 14.9865C59.3488 13.5821 57.4477 12.7947 55.4663 12.7998C54.7101 12.7998 54.0018 12.8318 53.333 12.8841C57.0077 13.4066 59.737 16.5548 59.733 20.2665V28.7998C59.733 30.5671 58.3003 31.9998 56.533 31.9998H59.733C61.5003 31.9998 62.933 30.5671 62.933 28.7998V20.2665C62.9381 18.2852 62.1508 16.3841 60.7463 14.9865Z" fill="#FC7C7C"/>
<path d="M62.9329 28.7998V43.7331C62.9329 45.7134 62.1462 47.6126 60.7459 49.0129C59.3457 50.4131 57.4465 51.1998 55.4662 51.1998C53.0245 51.2327 50.5935 50.8725 48.2662 50.1331C47.4263 49.8752 46.6205 49.517 45.8662 49.0665V28.7998C45.8662 30.5671 47.2989 31.9998 49.0662 31.9998H59.7329C61.5002 31.9998 62.9329 30.5671 62.9329 28.7998Z" fill="#FBD7D7"/>
<path d="M59.733 31.9998V43.7331C59.7338 47.4436 57.0061 50.59 53.333 51.1155C54.0007 51.1678 54.7101 51.1998 55.4663 51.1998C59.5901 51.1998 62.933 47.8569 62.933 43.7331V28.7998C62.933 30.5671 61.5003 31.9998 59.733 31.9998Z" fill="#FC7C7C"/>
<path d="M10.9064 51.1518C7.1251 50.734 4.26407 47.5375 4.26641 43.7331V20.2665C4.26711 16.7598 6.7079 13.7262 10.1331 12.9747C10.386 12.9197 10.6417 12.8777 10.8989 12.8489H10.9224C11.1916 12.8185 11.4622 12.8021 11.7331 12.7998H8.53307C8.26261 12.8007 7.99238 12.8157 7.72347 12.8446H7.70001C7.44273 12.8734 7.1871 12.9154 6.93414 12.9705C3.50698 13.7218 1.06521 16.7579 1.06641 20.2665V43.7331C1.06407 47.5375 3.9251 50.734 7.70641 51.1518H7.72241C7.99157 51.1824 8.26219 51.1984 8.53307 51.1998H11.7331C11.4622 51.1991 11.1916 51.1838 10.9224 51.1539L10.9064 51.1518Z" fill="white"/>
<path d="M0 20.2666H2.13333V28.7999H0V20.2666Z" fill="white"/>
<path d="M1.08764 25.6001C0.498535 25.6031 0.0185841 25.1279 0.0156386 24.5388C0.0126931 23.9497 0.487868 23.4697 1.07697 23.4668H1.08764C1.67674 23.4668 2.15431 23.9444 2.15431 24.5335C2.15431 25.1226 1.67674 25.6001 1.08764 25.6001Z" fill="#E93323"/>
<path d="M55.4667 11.733C52.1584 11.6296 48.8722 12.3052 45.8731 13.7052C43.2276 12.3675 40.2974 11.6908 37.3333 11.733C34.3474 11.6886 31.3961 12.376 28.7371 13.7351C25.3665 12.384 21.7645 11.7039 18.1333 11.733H8.53333C3.8227 11.7383 0.00529054 15.5557 0 20.2663C0 20.8554 0.477563 21.333 1.06667 21.333C1.65577 21.333 2.13333 20.8554 2.13333 20.2663C2.13333 16.7317 4.99871 13.8663 8.53333 13.8663C12.068 13.8663 14.9333 16.7317 14.9333 20.2663V21.91C13.0574 20.2181 10.3606 19.7907 8.05331 20.8195C5.74607 21.8483 4.2618 24.1401 4.26667 26.6663V39.9996C4.26667 42.0615 5.93814 43.733 8 43.733C10.0619 43.733 11.7333 42.0615 11.7333 39.9996V26.6663C11.7333 26.0772 11.2558 25.5996 10.6667 25.5996C10.0776 25.5996 9.6 26.0772 9.6 26.6663V39.9996C9.6 40.8833 8.88366 41.5996 8 41.5996C7.11634 41.5996 6.4 40.8833 6.4 39.9996V26.6663C6.4 24.3099 8.31025 22.3996 10.6667 22.3996C13.0231 22.3996 14.9333 24.3099 14.9333 26.6663V43.733C14.9333 47.2676 12.068 50.133 8.53333 50.133C4.99871 50.133 2.13333 47.2676 2.13333 43.733V28.7996C2.13333 28.2105 1.65577 27.733 1.06667 27.733C0.477563 27.733 0 28.2105 0 28.7996V43.733C0.00529054 48.4436 3.8227 52.261 8.53333 52.2663H18.1333C21.7645 52.2953 25.3665 51.6152 28.7371 50.2642C31.3961 51.6233 34.3474 52.3106 37.3333 52.2663C40.2974 52.3084 43.2276 51.6317 45.8731 50.294C48.8722 51.6941 52.1584 52.3697 55.4667 52.2663C60.1773 52.261 63.9947 48.4436 64 43.733V20.2663C63.9947 15.5557 60.1773 11.7383 55.4667 11.733ZM44.8 28.7996C44.8 29.9778 43.8449 30.933 42.6667 30.933H32C30.8218 30.933 29.8667 29.9778 29.8667 28.7996V19.8204C32.1876 18.6769 34.7462 18.0987 37.3333 18.133C39.9205 18.0986 42.4791 18.6768 44.8 19.8204V28.7996ZM29.8667 32.4668C30.5114 32.8539 31.2481 33.0609 32 33.0663H42.6667C43.4186 33.0609 44.1553 32.8539 44.8 32.4668V44.1788C42.479 45.3224 39.9205 45.9006 37.3333 45.8663C34.7462 45.9008 32.1876 45.3225 29.8667 44.1788V32.4668ZM44.8 15.5538V17.461C40.0129 15.5125 34.6538 15.5125 29.8667 17.461V15.5538C32.1876 14.4102 34.7462 13.832 37.3333 13.8663C39.9205 13.8319 42.4791 14.4102 44.8 15.5538ZM14.1589 13.8663H18.1333C21.4157 13.8481 24.6722 14.447 27.7333 15.6316V17.6114C24.9995 16.652 22.1352 16.1157 19.2395 16.021C18.9546 16.0012 18.6742 16.1001 18.4647 16.2943C18.2552 16.4884 18.1353 16.7604 18.1333 17.046C18.1227 17.329 18.2249 17.6046 18.4176 17.812C18.6103 18.0195 18.8776 18.1419 19.1605 18.1522C22.0965 18.2435 24.9955 18.834 27.7333 19.8983V28.7996C27.7333 29.9778 26.7782 30.933 25.6 30.933H19.2C18.0218 30.933 17.0667 29.9778 17.0667 28.7996V20.2663C17.0653 17.8136 16.0054 15.4808 14.1589 13.8663ZM14.1589 50.133C16.0054 48.5185 17.0653 46.1857 17.0667 43.733V32.4732C17.7124 32.8572 18.4488 33.0619 19.2 33.0663H25.6C26.3519 33.0609 27.0886 32.8539 27.7333 32.4668V44.101C24.9955 45.1653 22.0965 45.7558 19.1605 45.8471C18.5714 45.858 18.1027 46.3444 18.1136 46.9335C18.1245 47.5226 18.6109 47.9913 19.2 47.9804H19.2395C22.1353 47.885 24.9996 47.348 27.7333 46.3879V48.3676C24.6722 49.5523 21.4157 50.1511 18.1333 50.133H14.1589ZM29.8667 48.4455V46.5383C34.6538 48.4868 40.0129 48.4868 44.8 46.5383V48.4455C42.479 49.589 39.9205 50.1673 37.3333 50.133C34.7462 50.1674 32.1876 49.5891 29.8667 48.4455ZM55.4667 50.133C52.5302 50.2245 49.6116 49.6444 46.9333 48.437V46.5383C49.2984 47.5234 51.8381 48.0205 54.4 47.9996C55.1515 47.9999 55.9025 47.9593 56.6496 47.878C57.0286 47.8365 57.3566 47.5959 57.5102 47.2469C57.6637 46.898 57.6194 46.4936 57.3939 46.1861C57.1684 45.8787 56.7961 45.7149 56.4171 45.7564C55.7472 45.8301 55.0739 45.8668 54.4 45.8663C51.8128 45.9008 49.2542 45.3225 46.9333 44.1788V32.4668C47.578 32.8539 48.3147 33.0609 49.0667 33.0663H59.7333C60.4845 33.0619 61.221 32.8572 61.8667 32.4732V43.733C61.8631 47.2661 58.9998 50.1294 55.4667 50.133ZM61.8667 28.7996C61.8667 29.9778 60.9115 30.933 59.7333 30.933H49.0667C47.8885 30.933 46.9333 29.9778 46.9333 28.7996V19.8204C49.2543 18.6769 51.8129 18.0987 54.4 18.133C55.0738 18.1314 55.7472 18.167 56.4171 18.2396C57.0029 18.3038 57.5299 17.881 57.5941 17.2951C57.6583 16.7092 57.2355 16.1822 56.6496 16.118C55.9024 16.0378 55.1515 15.9983 54.4 15.9996C51.8381 15.9788 49.2984 16.4758 46.9333 17.461V15.5623C49.6117 14.3551 52.5302 13.775 55.4667 13.8663C58.9998 13.8698 61.8631 16.7331 61.8667 20.2663V28.7996Z" fill="#E93323"/>
</svg>
