<svg width="40" height="40" viewBox="0 0 40 40" fill="none" xmlns="http://www.w3.org/2000/svg">
<path fill-rule="evenodd" clip-rule="evenodd" d="M19.9997 4.58301C15.9109 4.58301 11.9896 6.20726 9.09845 9.09845C6.20726 11.9896 4.58301 15.9109 4.58301 19.9997C4.58301 24.0884 6.20726 28.0097 9.09845 30.9009C11.9896 33.7921 15.9109 35.4163 19.9997 35.4163C24.0884 35.4163 28.0097 33.7921 30.9009 30.9009C33.7921 28.0097 35.4163 24.0884 35.4163 19.9997C35.4163 15.9109 33.7921 11.9896 30.9009 9.09845C28.0097 6.20726 24.0884 4.58301 19.9997 4.58301ZM2.08301 19.9997C2.08301 10.1047 10.1047 2.08301 19.9997 2.08301C29.8947 2.08301 37.9163 10.1047 37.9163 19.9997C37.9163 29.8947 29.8947 37.9163 19.9997 37.9163C10.1047 37.9163 2.08301 29.8947 2.08301 19.9997ZM23.383 14.1163C23.6171 14.3507 23.7486 14.6684 23.7486 14.9997C23.7486 15.3309 23.6171 15.6486 23.383 15.883L19.2663 19.9997L23.383 24.1163C23.5058 24.2308 23.6043 24.3688 23.6726 24.5221C23.741 24.6754 23.7777 24.841 23.7807 25.0088C23.7836 25.1766 23.7527 25.3434 23.6899 25.499C23.627 25.6547 23.5334 25.796 23.4147 25.9147C23.296 26.0334 23.1547 26.127 22.999 26.1899C22.8434 26.2527 22.6766 26.2836 22.5088 26.2807C22.341 26.2777 22.1754 26.241 22.0221 26.1726C21.8688 26.1043 21.7308 26.0058 21.6163 25.883L16.6163 20.883C16.3823 20.6486 16.2508 20.3309 16.2508 19.9997C16.2508 19.6684 16.3823 19.3507 16.6163 19.1163L21.6163 14.1163C21.8507 13.8823 22.1684 13.7508 22.4997 13.7508C22.8309 13.7508 23.1486 13.8823 23.383 14.1163Z" fill="#E93323"/>
</svg>
