<svg width="40" height="40" viewBox="0 0 40 40" fill="none" xmlns="http://www.w3.org/2000/svg">
<path fill-rule="evenodd" clip-rule="evenodd" d="M19.9997 4.58301C15.9109 4.58301 11.9896 6.20726 9.09845 9.09845C6.20726 11.9896 4.58301 15.9109 4.58301 19.9997C4.58301 24.0884 6.20726 28.0097 9.09845 30.9009C11.9896 33.7921 15.9109 35.4163 19.9997 35.4163C24.0884 35.4163 28.0097 33.7921 30.9009 30.9009C33.7921 28.0097 35.4163 24.0884 35.4163 19.9997C35.4163 15.9109 33.7921 11.9896 30.9009 9.09845C28.0097 6.20726 24.0884 4.58301 19.9997 4.58301ZM2.08301 19.9997C2.08301 10.1047 10.1047 2.08301 19.9997 2.08301C29.8947 2.08301 37.9163 10.1047 37.9163 19.9997C37.9163 29.8947 29.8947 37.9163 19.9997 37.9163C10.1047 37.9163 2.08301 29.8947 2.08301 19.9997ZM16.6163 14.1163C16.8507 13.8823 17.1684 13.7508 17.4997 13.7508C17.8309 13.7508 18.1486 13.8823 18.383 14.1163L23.383 19.1163C23.6171 19.3507 23.7486 19.6684 23.7486 19.9997C23.7486 20.3309 23.6171 20.6486 23.383 20.883L18.383 25.883C18.2686 26.0058 18.1306 26.1043 17.9772 26.1726C17.8239 26.241 17.6584 26.2777 17.4905 26.2807C17.3227 26.2836 17.156 26.2527 17.0003 26.1899C16.8447 26.127 16.7033 26.0334 16.5846 25.9147C16.4659 25.796 16.3723 25.6547 16.3095 25.499C16.2466 25.3434 16.2157 25.1766 16.2187 25.0088C16.2217 24.841 16.2584 24.6754 16.3267 24.5221C16.395 24.3688 16.4935 24.2308 16.6163 24.1163L20.733 19.9997L16.6163 15.883C16.3823 15.6486 16.2508 15.3309 16.2508 14.9997C16.2508 14.6684 16.3823 14.3507 16.6163 14.1163Z" fill="#E93323"/>
</svg>
