<svg width="47" height="47" viewBox="0 0 47 47" fill="none" xmlns="http://www.w3.org/2000/svg">
<path d="M13.7087 43.0832H7.83366C6.79489 43.0832 5.79867 42.6705 5.06416 41.936C4.32964 41.2015 3.91699 40.2053 3.91699 39.1665V25.4582C3.91699 24.4194 4.32964 23.4232 5.06416 22.6887C5.79867 21.9542 6.79489 21.5415 7.83366 21.5415H13.7087M27.417 17.6248V9.7915C27.417 8.23336 26.798 6.73903 25.6962 5.63725C24.5945 4.53548 23.1001 3.9165 21.542 3.9165L13.7087 21.5415V43.0832H35.7987C36.7432 43.0938 37.6598 42.7628 38.3796 42.151C39.0993 41.5392 39.5737 40.6879 39.7153 39.754L42.4178 22.129C42.503 21.5677 42.4652 20.9945 42.3069 20.4492C42.1486 19.904 41.8736 19.3997 41.501 18.9712C41.1285 18.5428 40.6672 18.2005 40.1492 17.968C39.6312 17.7355 39.0689 17.6184 38.5012 17.6248H27.417Z" stroke="#E93323" stroke-width="3" stroke-linecap="round" stroke-linejoin="round"/>
</svg>
