<svg width="32" height="32" viewBox="0 0 32 32" fill="none" xmlns="http://www.w3.org/2000/svg">
<path d="M24.3248 30.1889C18.3497 30.8264 12.3237 30.8264 6.34859 30.1889C5.18828 30.0664 4.10503 29.5498 3.27943 28.7254C2.45382 27.9009 1.93576 26.8184 1.8116 25.6583C1.17413 19.6832 1.17413 13.6572 1.8116 7.68209C1.93413 6.52178 2.45067 5.43852 3.27512 4.61292C4.09956 3.78732 5.18209 3.26925 6.34223 3.14509C12.3173 2.50763 18.3433 2.50763 24.3184 3.14509C25.4787 3.26762 26.562 3.78417 27.3876 4.60861C28.2132 5.43306 28.7312 6.51559 28.8554 7.67572C29.4929 13.6508 29.4929 19.6768 28.8554 25.6519C28.7329 26.8122 28.2163 27.8955 27.3919 28.7211C26.5674 29.5467 25.4849 30.0647 24.3248 30.1889Z" fill="#E93323"/>
<path d="M13.8018 25.3337C12.2631 25.3337 10.7875 24.7061 9.69945 23.5891C8.61143 22.472 8.00018 20.957 8.00018 19.3773C8.00018 17.7976 8.61143 16.2825 9.69945 15.1655C10.7875 14.0485 12.2631 13.4209 13.8018 13.4209H15.2184V16.3278H13.8018C13.2134 16.3278 12.6382 16.507 12.1489 16.8426C11.6596 17.1783 11.2783 17.6553 11.0531 18.2135C10.8279 18.7716 10.769 19.3858 10.8838 19.9783C10.9986 20.5708 11.282 21.1151 11.698 21.5423C12.1141 21.9695 12.6443 22.2604 13.2214 22.3782C13.7985 22.4961 14.3968 22.4356 14.9404 22.2044C15.484 21.9732 15.9487 21.5817 16.2756 21.0794C16.6026 20.5771 16.777 19.9865 16.777 19.3824V6.66699H19.6084V8.1196C19.6084 8.92971 19.9219 9.70665 20.4799 10.2795C21.0378 10.8523 21.7946 11.1741 22.5837 11.1741H24.0002V14.076H22.5737C21.5251 14.0775 20.4961 13.7841 19.5985 13.2275V19.3773C19.5972 20.9557 18.9862 22.4692 17.8996 23.5858C16.8129 24.7024 15.3393 25.331 13.8018 25.3337Z" fill="#FCFCFD"/>
</svg>
