<svg width="80" height="80" viewBox="0 0 80 80" fill="none" xmlns="http://www.w3.org/2000/svg">
<circle cx="40" cy="40" r="40" fill="#60D769"/>
<g clip-path="url(#clip0_102_4)">
<path d="M22.467 40.1929C22.4662 43.3437 23.2958 46.4201 24.8735 49.1318L22.3162 58.3966L31.8716 55.9105C34.5145 57.3382 37.4757 58.0862 40.4849 58.0864H40.4928C50.4267 58.0864 58.513 50.0656 58.5173 40.207C58.5192 35.4299 56.6459 30.9377 53.2425 27.5581C49.8397 24.1787 45.3141 22.3166 40.4921 22.3145C30.5571 22.3145 22.4713 30.3348 22.4672 40.1929" fill="url(#paint0_linear_102_4)"/>
<path d="M21.8235 40.1868C21.8225 43.4509 22.6819 46.6373 24.3158 49.4461L21.6667 59.043L31.5648 56.4679C34.2921 57.9433 37.3627 58.7212 40.4872 58.7224H40.4953C50.7855 58.7224 59.1624 50.4131 59.1667 40.2016C59.1685 35.2527 57.2279 30.5991 53.7029 27.0984C50.1774 23.5981 45.4899 21.669 40.4953 21.667C30.2033 21.667 21.8276 29.9751 21.8235 40.1868ZM27.7182 48.9623L27.3486 48.3802C25.795 45.9291 24.975 43.0965 24.9761 40.1879C24.9793 31.7003 31.9409 24.7949 40.5011 24.7949C44.6466 24.7966 48.5425 26.4001 51.4728 29.3094C54.4029 32.219 56.0153 36.0868 56.0143 40.2004C56.0104 48.6881 49.0488 55.5943 40.4953 55.5943H40.4891C37.704 55.5929 34.9725 54.8507 32.5904 53.4482L32.0235 53.1147L26.1498 54.6427L27.7182 48.9623Z" fill="url(#paint1_linear_102_4)"/>
<path d="M35.8286 32.4444C35.4791 31.6736 35.1113 31.6581 34.7789 31.6446C34.5067 31.6329 34.1956 31.6338 33.8848 31.6338C33.5736 31.6338 33.0681 31.7499 32.6408 32.2129C32.2131 32.6762 31.0078 33.796 31.0078 36.0735C31.0078 38.3511 32.6796 40.5521 32.9127 40.8613C33.146 41.1699 36.1402 45.9931 40.8822 47.8486C44.8232 49.3906 45.6252 49.084 46.4805 49.0066C47.336 48.9296 49.2409 47.8871 49.6295 46.8062C50.0184 45.7254 50.0184 44.7989 49.9018 44.6053C49.7852 44.4124 49.4741 44.2966 49.0075 44.0652C48.5408 43.8337 46.2472 42.7137 45.8196 42.5592C45.3918 42.4049 45.0809 42.3278 44.7697 42.7914C44.4586 43.2542 43.5652 44.2966 43.2929 44.6053C43.0208 44.9148 42.7485 44.9533 42.2821 44.7217C41.8153 44.4895 40.3128 44.0012 38.5302 42.4244C37.1433 41.1973 36.207 39.6821 35.9348 39.2185C35.6626 38.7558 35.9057 38.5049 36.1396 38.2742C36.3492 38.0668 36.6063 37.7337 36.8398 37.4635C37.0724 37.1931 37.15 37.0002 37.3056 36.6915C37.4613 36.3825 37.3834 36.1121 37.2669 35.8806C37.15 35.6491 36.2435 33.3597 35.8286 32.4444Z" fill="#FCFCFD"/>
</g>
<defs>
<linearGradient id="paint0_linear_102_4" x1="1832.37" y1="3630.53" x2="1832.37" y2="22.3145" gradientUnits="userSpaceOnUse">
<stop stop-color="#1FAF38"/>
<stop offset="1" stop-color="#60D669"/>
</linearGradient>
<linearGradient id="paint1_linear_102_4" x1="1896.67" y1="3759.27" x2="1896.67" y2="21.667" gradientUnits="userSpaceOnUse">
<stop stop-color="#F9F9F9"/>
<stop offset="1" stop-color="white"/>
</linearGradient>
<clipPath id="clip0_102_4">
<rect width="37.5" height="37.5" fill="white" transform="translate(21.6667 21.667)"/>
</clipPath>
</defs>
</svg>
